<?xml version="1.0" encoding="UTF-8" standalone="no"?>
<!DOCTYPE svg PUBLIC "-//W3C//DTD SVG 1.1//EN"
 "http://www.w3.org/Graphics/SVG/1.1/DTD/svg11.dtd">
<!-- Generated by graphviz version 2.38.0 (20140413.2041)
 -->
<!-- Title: controllers_diagram Pages: 1 -->
<svg width="564pt" height="583pt"
 viewBox="0.00 0.00 564.00 583.00" xmlns="http://www.w3.org/2000/svg" xmlns:xlink="http://www.w3.org/1999/xlink">
<g id="graph0" class="graph" transform="scale(1 1) rotate(0) translate(251 370)">
<title>controllers_diagram</title>
<polygon fill="none" stroke="none" points="-251,213 -251,-370 313,-370 313,213 -251,213"/>
<!-- _diagram_info -->
<g id="node1" class="node"><title>_diagram_info</title>
<text text-anchor="start" x="103" y="145.4" font-family="Times,serif" font-size="13.00">Controllers diagram</text>
<text text-anchor="start" x="103" y="159.4" font-family="Times,serif" font-size="13.00">Date: Mar 17 2017 &#45; 16:03</text>
<text text-anchor="start" x="103" y="173.4" font-family="Times,serif" font-size="13.00">Migration version: 20170317185924</text>
<text text-anchor="start" x="103" y="187.4" font-family="Times,serif" font-size="13.00">Generated by RailRoady 1.5.2</text>
<text text-anchor="start" x="103" y="201.4" font-family="Times,serif" font-size="13.00">http://railroady.prestonlee.com</text>
</g>
<!-- ApplicationController -->
<g id="node2" class="node"><title>ApplicationController</title>
<path fill="none" stroke="black" d="M-235,-248C-235,-248 -123,-248 -123,-248 -117,-248 -111,-254 -111,-260 -111,-260 -111,-330 -111,-330 -111,-336 -117,-342 -123,-342 -123,-342 -235,-342 -235,-342 -241,-342 -247,-336 -247,-330 -247,-330 -247,-260 -247,-260 -247,-254 -241,-248 -235,-248"/>
<text text-anchor="middle" x="-179" y="-326.8" font-family="Times,serif" font-size="14.00">ApplicationController</text>
<polyline fill="none" stroke="black" points="-247,-319 -111,-319 "/>
<polyline fill="none" stroke="black" points="-247,-295 -111,-295 "/>
<polyline fill="none" stroke="black" points="-247,-271 -111,-271 "/>
<text text-anchor="start" x="-239" y="-255.8" font-family="Times,serif" font-size="14.00">_layout</text>
</g>
<!-- DepartmentsController -->
<g id="node3" class="node"><title>DepartmentsController</title>
<path fill="none" stroke="black" d="M-64,113.5C-64,113.5 54,113.5 54,113.5 60,113.5 66,107.5 66,101.5 66,101.5 66,-87.5 66,-87.5 66,-93.5 60,-99.5 54,-99.5 54,-99.5 -64,-99.5 -64,-99.5 -70,-99.5 -76,-93.5 -76,-87.5 -76,-87.5 -76,101.5 -76,101.5 -76,107.5 -70,113.5 -64,113.5"/>
<text text-anchor="middle" x="-5" y="-84.3" font-family="Times,serif" font-size="14.00">DepartmentsController</text>
<polyline fill="none" stroke="black" points="-76,-76.5 66,-76.5 "/>
<text text-anchor="start" x="-68" y="-61.3" font-family="Times,serif" font-size="14.00">create</text>
<text text-anchor="start" x="-68" y="-46.3" font-family="Times,serif" font-size="14.00">destroy</text>
<text text-anchor="start" x="-68" y="-31.3" font-family="Times,serif" font-size="14.00">edit</text>
<text text-anchor="start" x="-68" y="-16.3" font-family="Times,serif" font-size="14.00">index</text>
<text text-anchor="start" x="-68" y="-1.3" font-family="Times,serif" font-size="14.00">new</text>
<text text-anchor="start" x="-68" y="13.7" font-family="Times,serif" font-size="14.00">show</text>
<text text-anchor="start" x="-68" y="28.7" font-family="Times,serif" font-size="14.00">update</text>
<polyline fill="none" stroke="black" points="-76,36.5 66,36.5 "/>
<polyline fill="none" stroke="black" points="-76,60.5 66,60.5 "/>
<text text-anchor="start" x="-68" y="75.7" font-family="Times,serif" font-size="14.00">_layout</text>
<text text-anchor="start" x="-68" y="90.7" font-family="Times,serif" font-size="14.00">department_params</text>
<text text-anchor="start" x="-68" y="105.7" font-family="Times,serif" font-size="14.00">set_department</text>
</g>
<!-- SummariesController -->
<g id="node4" class="node"><title>SummariesController</title>
<path fill="none" stroke="black" d="M-64,-133.5C-64,-133.5 46,-133.5 46,-133.5 52,-133.5 58,-139.5 58,-145.5 58,-145.5 58,-334.5 58,-334.5 58,-340.5 52,-346.5 46,-346.5 46,-346.5 -64,-346.5 -64,-346.5 -70,-346.5 -76,-340.5 -76,-334.5 -76,-334.5 -76,-145.5 -76,-145.5 -76,-139.5 -70,-133.5 -64,-133.5"/>
<text text-anchor="middle" x="-9" y="-331.3" font-family="Times,serif" font-size="14.00">SummariesController</text>
<polyline fill="none" stroke="black" points="-76,-323.5 58,-323.5 "/>
<text text-anchor="start" x="-68" y="-308.3" font-family="Times,serif" font-size="14.00">create</text>
<text text-anchor="start" x="-68" y="-293.3" font-family="Times,serif" font-size="14.00">destroy</text>
<text text-anchor="start" x="-68" y="-278.3" font-family="Times,serif" font-size="14.00">edit</text>
<text text-anchor="start" x="-68" y="-263.3" font-family="Times,serif" font-size="14.00">index</text>
<text text-anchor="start" x="-68" y="-248.3" font-family="Times,serif" font-size="14.00">new</text>
<text text-anchor="start" x="-68" y="-233.3" font-family="Times,serif" font-size="14.00">show</text>
<text text-anchor="start" x="-68" y="-218.3" font-family="Times,serif" font-size="14.00">update</text>
<polyline fill="none" stroke="black" points="-76,-210.5 58,-210.5 "/>
<polyline fill="none" stroke="black" points="-76,-186.5 58,-186.5 "/>
<text text-anchor="start" x="-68" y="-171.3" font-family="Times,serif" font-size="14.00">_layout</text>
<text text-anchor="start" x="-68" y="-156.3" font-family="Times,serif" font-size="14.00">set_summary</text>
<text text-anchor="start" x="-68" y="-141.3" font-family="Times,serif" font-size="14.00">summary_params</text>
</g>
<!-- DocumentsController -->
<g id="node5" class="node"><title>DocumentsController</title>
<path fill="none" stroke="black" d="M164,-152.5C164,-152.5 274,-152.5 274,-152.5 280,-152.5 286,-158.5 286,-164.5 286,-164.5 286,-353.5 286,-353.5 286,-359.5 280,-365.5 274,-365.5 274,-365.5 164,-365.5 164,-365.5 158,-365.5 152,-359.5 152,-353.5 152,-353.5 152,-164.5 152,-164.5 152,-158.5 158,-152.5 164,-152.5"/>
<text text-anchor="middle" x="219" y="-350.3" font-family="Times,serif" font-size="14.00">DocumentsController</text>
<polyline fill="none" stroke="black" points="152,-342.5 286,-342.5 "/>
<text text-anchor="start" x="160" y="-327.3" font-family="Times,serif" font-size="14.00">create</text>
<text text-anchor="start" x="160" y="-312.3" font-family="Times,serif" font-size="14.00">destroy</text>
<text text-anchor="start" x="160" y="-297.3" font-family="Times,serif" font-size="14.00">edit</text>
<text text-anchor="start" x="160" y="-282.3" font-family="Times,serif" font-size="14.00">index</text>
<text text-anchor="start" x="160" y="-267.3" font-family="Times,serif" font-size="14.00">new</text>
<text text-anchor="start" x="160" y="-252.3" font-family="Times,serif" font-size="14.00">show</text>
<text text-anchor="start" x="160" y="-237.3" font-family="Times,serif" font-size="14.00">update</text>
<polyline fill="none" stroke="black" points="152,-229.5 286,-229.5 "/>
<polyline fill="none" stroke="black" points="152,-205.5 286,-205.5 "/>
<text text-anchor="start" x="160" y="-190.3" font-family="Times,serif" font-size="14.00">_layout</text>
<text text-anchor="start" x="160" y="-175.3" font-family="Times,serif" font-size="14.00">document_params</text>
<text text-anchor="start" x="160" y="-160.3" font-family="Times,serif" font-size="14.00">set_document</text>
</g>
<!-- EstablishmentsController -->
<g id="node6" class="node"><title>EstablishmentsController</title>
<path fill="none" stroke="black" d="M107.5,94.5C107.5,94.5 238.5,94.5 238.5,94.5 244.5,94.5 250.5,88.5 250.5,82.5 250.5,82.5 250.5,-106.5 250.5,-106.5 250.5,-112.5 244.5,-118.5 238.5,-118.5 238.5,-118.5 107.5,-118.5 107.5,-118.5 101.5,-118.5 95.5,-112.5 95.5,-106.5 95.5,-106.5 95.5,82.5 95.5,82.5 95.5,88.5 101.5,94.5 107.5,94.5"/>
<text text-anchor="middle" x="173" y="-103.3" font-family="Times,serif" font-size="14.00">EstablishmentsController</text>
<polyline fill="none" stroke="black" points="95.5,-95.5 250.5,-95.5 "/>
<text text-anchor="start" x="103.5" y="-80.3" font-family="Times,serif" font-size="14.00">create</text>
<text text-anchor="start" x="103.5" y="-65.3" font-family="Times,serif" font-size="14.00">destroy</text>
<text text-anchor="start" x="103.5" y="-50.3" font-family="Times,serif" font-size="14.00">edit</text>
<text text-anchor="start" x="103.5" y="-35.3" font-family="Times,serif" font-size="14.00">index</text>
<text text-anchor="start" x="103.5" y="-20.3" font-family="Times,serif" font-size="14.00">new</text>
<text text-anchor="start" x="103.5" y="-5.3" font-family="Times,serif" font-size="14.00">show</text>
<text text-anchor="start" x="103.5" y="9.7" font-family="Times,serif" font-size="14.00">update</text>
<polyline fill="none" stroke="black" points="95.5,17.5 250.5,17.5 "/>
<polyline fill="none" stroke="black" points="95.5,41.5 250.5,41.5 "/>
<text text-anchor="start" x="103.5" y="56.7" font-family="Times,serif" font-size="14.00">_layout</text>
<text text-anchor="start" x="103.5" y="71.7" font-family="Times,serif" font-size="14.00">establishment_params</text>
<text text-anchor="start" x="103.5" y="86.7" font-family="Times,serif" font-size="14.00">set_establishment</text>
</g>
</g>
</svg>
