<?xml version="1.0" encoding="UTF-8" standalone="no"?>
<!DOCTYPE svg PUBLIC "-//W3C//DTD SVG 1.1//EN"
 "http://www.w3.org/Graphics/SVG/1.1/DTD/svg11.dtd">
<!-- Generated by graphviz version 2.38.0 (20140413.2041)
 -->
<!-- Title: controllers_diagram Pages: 1 -->
<svg width="792pt" height="653pt"
 viewBox="0.00 0.00 792.00 653.50" xmlns="http://www.w3.org/2000/svg" xmlns:xlink="http://www.w3.org/1999/xlink">
<g id="graph0" class="graph" transform="scale(1 1) rotate(0) translate(292.5 398)">
<title>controllers_diagram</title>
<polygon fill="none" stroke="none" points="-292.5,255.5 -292.5,-398 499.5,-398 499.5,255.5 -292.5,255.5"/>
<!-- _diagram_info -->
<g id="node1" class="node"><title>_diagram_info</title>
<text text-anchor="start" x="-244" y="152.4" font-family="Times,serif" font-size="13.00">Controllers diagram</text>
<text text-anchor="start" x="-244" y="166.4" font-family="Times,serif" font-size="13.00">Date: Mar 19 2017 &#45; 22:39</text>
<text text-anchor="start" x="-244" y="180.4" font-family="Times,serif" font-size="13.00">Migration version: 20170319143119</text>
<text text-anchor="start" x="-244" y="194.4" font-family="Times,serif" font-size="13.00">Generated by RailRoady 1.5.2</text>
<text text-anchor="start" x="-244" y="208.4" font-family="Times,serif" font-size="13.00">http://railroady.prestonlee.com</text>
</g>
<!-- ApplicationController -->
<g id="node2" class="node"><title>ApplicationController</title>
<path fill="none" stroke="black" d="M336,-145C336,-145 448,-145 448,-145 454,-145 460,-151 460,-157 460,-157 460,-227 460,-227 460,-233 454,-239 448,-239 448,-239 336,-239 336,-239 330,-239 324,-233 324,-227 324,-227 324,-157 324,-157 324,-151 330,-145 336,-145"/>
<text text-anchor="middle" x="392" y="-223.8" font-family="Times,serif" font-size="14.00">ApplicationController</text>
<polyline fill="none" stroke="black" points="324,-216 460,-216 "/>
<polyline fill="none" stroke="black" points="324,-192 460,-192 "/>
<polyline fill="none" stroke="black" points="324,-168 460,-168 "/>
<text text-anchor="start" x="332" y="-152.8" font-family="Times,serif" font-size="14.00">_layout</text>
</g>
<!-- Users::OmniauthCallbacksController -->
<g id="node3" class="node"><title>Users::OmniauthCallbacksController</title>
<path fill="none" stroke="black" d="M12,233C12,233 206,233 206,233 212,233 218,227 218,221 218,221 218,151 218,151 218,145 212,139 206,139 206,139 12,139 12,139 6,139 0,145 0,151 0,151 0,221 0,221 0,227 6,233 12,233"/>
<text text-anchor="middle" x="109" y="154.2" font-family="Times,serif" font-size="14.00">Users::OmniauthCallbacksController</text>
<polyline fill="none" stroke="black" points="0,162 218,162 "/>
<polyline fill="none" stroke="black" points="0,186 218,186 "/>
<polyline fill="none" stroke="black" points="0,210 218,210 "/>
<text text-anchor="start" x="8" y="225.2" font-family="Times,serif" font-size="14.00">_layout</text>
</g>
<!-- Users::RegistrationsController -->
<g id="node4" class="node"><title>Users::RegistrationsController</title>
<path fill="none" stroke="black" d="M264,251C264,251 446,251 446,251 452,251 458,245 458,239 458,239 458,155 458,155 458,149 452,143 446,143 446,143 264,143 264,143 258,143 252,149 252,155 252,155 252,239 252,239 252,245 258,251 264,251"/>
<text text-anchor="middle" x="355" y="158.2" font-family="Times,serif" font-size="14.00">Users::RegistrationsController</text>
<polyline fill="none" stroke="black" points="252,166 458,166 "/>
<polyline fill="none" stroke="black" points="252,190 458,190 "/>
<text text-anchor="start" x="260" y="205.2" font-family="Times,serif" font-size="14.00">configure_account_update_params</text>
<text text-anchor="start" x="260" y="220.2" font-family="Times,serif" font-size="14.00">configure_sign_up_params</text>
<polyline fill="none" stroke="black" points="252,228 458,228 "/>
<text text-anchor="start" x="260" y="243.2" font-family="Times,serif" font-size="14.00">_layout</text>
</g>
<!-- Users::UnlocksController -->
<g id="node5" class="node"><title>Users::UnlocksController</title>
<path fill="none" stroke="black" d="M-275.5,71C-275.5,71 -144.5,71 -144.5,71 -138.5,71 -132.5,65 -132.5,59 -132.5,59 -132.5,-11 -132.5,-11 -132.5,-17 -138.5,-23 -144.5,-23 -144.5,-23 -275.5,-23 -275.5,-23 -281.5,-23 -287.5,-17 -287.5,-11 -287.5,-11 -287.5,59 -287.5,59 -287.5,65 -281.5,71 -275.5,71"/>
<text text-anchor="middle" x="-210" y="-7.8" font-family="Times,serif" font-size="14.00">Users::UnlocksController</text>
<polyline fill="none" stroke="black" points="-287.5,-0 -132.5,-0 "/>
<polyline fill="none" stroke="black" points="-287.5,24 -132.5,24 "/>
<polyline fill="none" stroke="black" points="-287.5,48 -132.5,48 "/>
<text text-anchor="start" x="-279.5" y="63.2" font-family="Times,serif" font-size="14.00">_layout</text>
</g>
<!-- Users::ConfirmationsController -->
<g id="node6" class="node"><title>Users::ConfirmationsController</title>
<path fill="none" stroke="black" d="M318.5,107C318.5,107 483.5,107 483.5,107 489.5,107 495.5,101 495.5,95 495.5,95 495.5,25 495.5,25 495.5,19 489.5,13 483.5,13 483.5,13 318.5,13 318.5,13 312.5,13 306.5,19 306.5,25 306.5,25 306.5,95 306.5,95 306.5,101 312.5,107 318.5,107"/>
<text text-anchor="middle" x="401" y="28.2" font-family="Times,serif" font-size="14.00">Users::ConfirmationsController</text>
<polyline fill="none" stroke="black" points="306.5,36 495.5,36 "/>
<polyline fill="none" stroke="black" points="306.5,60 495.5,60 "/>
<polyline fill="none" stroke="black" points="306.5,84 495.5,84 "/>
<text text-anchor="start" x="314.5" y="99.2" font-family="Times,serif" font-size="14.00">_layout</text>
</g>
<!-- Users::PasswordsController -->
<g id="node7" class="node"><title>Users::PasswordsController</title>
<path fill="none" stroke="black" d="M-276.5,-55C-276.5,-55 -133.5,-55 -133.5,-55 -127.5,-55 -121.5,-61 -121.5,-67 -121.5,-67 -121.5,-137 -121.5,-137 -121.5,-143 -127.5,-149 -133.5,-149 -133.5,-149 -276.5,-149 -276.5,-149 -282.5,-149 -288.5,-143 -288.5,-137 -288.5,-137 -288.5,-67 -288.5,-67 -288.5,-61 -282.5,-55 -276.5,-55"/>
<text text-anchor="middle" x="-205" y="-133.8" font-family="Times,serif" font-size="14.00">Users::PasswordsController</text>
<polyline fill="none" stroke="black" points="-288.5,-126 -121.5,-126 "/>
<polyline fill="none" stroke="black" points="-288.5,-102 -121.5,-102 "/>
<polyline fill="none" stroke="black" points="-288.5,-78 -121.5,-78 "/>
<text text-anchor="start" x="-280.5" y="-62.8" font-family="Times,serif" font-size="14.00">_layout</text>
</g>
<!-- Users::SessionsController -->
<g id="node8" class="node"><title>Users::SessionsController</title>
<path fill="none" stroke="black" d="M318.5,-19C318.5,-19 451.5,-19 451.5,-19 457.5,-19 463.5,-25 463.5,-31 463.5,-31 463.5,-101 463.5,-101 463.5,-107 457.5,-113 451.5,-113 451.5,-113 318.5,-113 318.5,-113 312.5,-113 306.5,-107 306.5,-101 306.5,-101 306.5,-31 306.5,-31 306.5,-25 312.5,-19 318.5,-19"/>
<text text-anchor="middle" x="385" y="-97.8" font-family="Times,serif" font-size="14.00">Users::SessionsController</text>
<polyline fill="none" stroke="black" points="306.5,-90 463.5,-90 "/>
<polyline fill="none" stroke="black" points="306.5,-66 463.5,-66 "/>
<polyline fill="none" stroke="black" points="306.5,-42 463.5,-42 "/>
<text text-anchor="start" x="314.5" y="-26.8" font-family="Times,serif" font-size="14.00">_layout</text>
</g>
<!-- DepartmentsController -->
<g id="node9" class="node"><title>DepartmentsController</title>
<path fill="none" stroke="black" d="M156,-144.5C156,-144.5 274,-144.5 274,-144.5 280,-144.5 286,-150.5 286,-156.5 286,-156.5 286,-345.5 286,-345.5 286,-351.5 280,-357.5 274,-357.5 274,-357.5 156,-357.5 156,-357.5 150,-357.5 144,-351.5 144,-345.5 144,-345.5 144,-156.5 144,-156.5 144,-150.5 150,-144.5 156,-144.5"/>
<text text-anchor="middle" x="215" y="-342.3" font-family="Times,serif" font-size="14.00">DepartmentsController</text>
<polyline fill="none" stroke="black" points="144,-334.5 286,-334.5 "/>
<text text-anchor="start" x="152" y="-319.3" font-family="Times,serif" font-size="14.00">create</text>
<text text-anchor="start" x="152" y="-304.3" font-family="Times,serif" font-size="14.00">destroy</text>
<text text-anchor="start" x="152" y="-289.3" font-family="Times,serif" font-size="14.00">edit</text>
<text text-anchor="start" x="152" y="-274.3" font-family="Times,serif" font-size="14.00">index</text>
<text text-anchor="start" x="152" y="-259.3" font-family="Times,serif" font-size="14.00">new</text>
<text text-anchor="start" x="152" y="-244.3" font-family="Times,serif" font-size="14.00">show</text>
<text text-anchor="start" x="152" y="-229.3" font-family="Times,serif" font-size="14.00">update</text>
<polyline fill="none" stroke="black" points="144,-221.5 286,-221.5 "/>
<polyline fill="none" stroke="black" points="144,-197.5 286,-197.5 "/>
<text text-anchor="start" x="152" y="-182.3" font-family="Times,serif" font-size="14.00">_layout</text>
<text text-anchor="start" x="152" y="-167.3" font-family="Times,serif" font-size="14.00">department_params</text>
<text text-anchor="start" x="152" y="-152.3" font-family="Times,serif" font-size="14.00">set_department</text>
</g>
<!-- SummariesController -->
<g id="node10" class="node"><title>SummariesController</title>
<path fill="none" stroke="black" d="M-6,-144.5C-6,-144.5 104,-144.5 104,-144.5 110,-144.5 116,-150.5 116,-156.5 116,-156.5 116,-345.5 116,-345.5 116,-351.5 110,-357.5 104,-357.5 104,-357.5 -6,-357.5 -6,-357.5 -12,-357.5 -18,-351.5 -18,-345.5 -18,-345.5 -18,-156.5 -18,-156.5 -18,-150.5 -12,-144.5 -6,-144.5"/>
<text text-anchor="middle" x="49" y="-342.3" font-family="Times,serif" font-size="14.00">SummariesController</text>
<polyline fill="none" stroke="black" points="-18,-334.5 116,-334.5 "/>
<text text-anchor="start" x="-10" y="-319.3" font-family="Times,serif" font-size="14.00">create</text>
<text text-anchor="start" x="-10" y="-304.3" font-family="Times,serif" font-size="14.00">destroy</text>
<text text-anchor="start" x="-10" y="-289.3" font-family="Times,serif" font-size="14.00">edit</text>
<text text-anchor="start" x="-10" y="-274.3" font-family="Times,serif" font-size="14.00">index</text>
<text text-anchor="start" x="-10" y="-259.3" font-family="Times,serif" font-size="14.00">new</text>
<text text-anchor="start" x="-10" y="-244.3" font-family="Times,serif" font-size="14.00">show</text>
<text text-anchor="start" x="-10" y="-229.3" font-family="Times,serif" font-size="14.00">update</text>
<polyline fill="none" stroke="black" points="-18,-221.5 116,-221.5 "/>
<polyline fill="none" stroke="black" points="-18,-197.5 116,-197.5 "/>
<text text-anchor="start" x="-10" y="-182.3" font-family="Times,serif" font-size="14.00">_layout</text>
<text text-anchor="start" x="-10" y="-167.3" font-family="Times,serif" font-size="14.00">set_summary</text>
<text text-anchor="start" x="-10" y="-152.3" font-family="Times,serif" font-size="14.00">summary_params</text>
</g>
<!-- DocumentsController -->
<g id="node11" class="node"><title>DocumentsController</title>
<path fill="none" stroke="black" d="M-168,-180.5C-168,-180.5 -58,-180.5 -58,-180.5 -52,-180.5 -46,-186.5 -46,-192.5 -46,-192.5 -46,-381.5 -46,-381.5 -46,-387.5 -52,-393.5 -58,-393.5 -58,-393.5 -168,-393.5 -168,-393.5 -174,-393.5 -180,-387.5 -180,-381.5 -180,-381.5 -180,-192.5 -180,-192.5 -180,-186.5 -174,-180.5 -168,-180.5"/>
<text text-anchor="middle" x="-113" y="-378.3" font-family="Times,serif" font-size="14.00">DocumentsController</text>
<polyline fill="none" stroke="black" points="-180,-370.5 -46,-370.5 "/>
<text text-anchor="start" x="-172" y="-355.3" font-family="Times,serif" font-size="14.00">create</text>
<text text-anchor="start" x="-172" y="-340.3" font-family="Times,serif" font-size="14.00">destroy</text>
<text text-anchor="start" x="-172" y="-325.3" font-family="Times,serif" font-size="14.00">edit</text>
<text text-anchor="start" x="-172" y="-310.3" font-family="Times,serif" font-size="14.00">index</text>
<text text-anchor="start" x="-172" y="-295.3" font-family="Times,serif" font-size="14.00">new</text>
<text text-anchor="start" x="-172" y="-280.3" font-family="Times,serif" font-size="14.00">show</text>
<text text-anchor="start" x="-172" y="-265.3" font-family="Times,serif" font-size="14.00">update</text>
<polyline fill="none" stroke="black" points="-180,-257.5 -46,-257.5 "/>
<polyline fill="none" stroke="black" points="-180,-233.5 -46,-233.5 "/>
<text text-anchor="start" x="-172" y="-218.3" font-family="Times,serif" font-size="14.00">_layout</text>
<text text-anchor="start" x="-172" y="-203.3" font-family="Times,serif" font-size="14.00">document_params</text>
<text text-anchor="start" x="-172" y="-188.3" font-family="Times,serif" font-size="14.00">set_document</text>
</g>
<!-- SummaryPhasesController -->
<g id="node12" class="node"><title>SummaryPhasesController</title>
<path fill="none" stroke="black" d="M-77.5,107.5C-77.5,107.5 61.5,107.5 61.5,107.5 67.5,107.5 73.5,101.5 73.5,95.5 73.5,95.5 73.5,-93.5 73.5,-93.5 73.5,-99.5 67.5,-105.5 61.5,-105.5 61.5,-105.5 -77.5,-105.5 -77.5,-105.5 -83.5,-105.5 -89.5,-99.5 -89.5,-93.5 -89.5,-93.5 -89.5,95.5 -89.5,95.5 -89.5,101.5 -83.5,107.5 -77.5,107.5"/>
<text text-anchor="middle" x="-8" y="-90.3" font-family="Times,serif" font-size="14.00">SummaryPhasesController</text>
<polyline fill="none" stroke="black" points="-89.5,-82.5 73.5,-82.5 "/>
<text text-anchor="start" x="-81.5" y="-67.3" font-family="Times,serif" font-size="14.00">create</text>
<text text-anchor="start" x="-81.5" y="-52.3" font-family="Times,serif" font-size="14.00">destroy</text>
<text text-anchor="start" x="-81.5" y="-37.3" font-family="Times,serif" font-size="14.00">edit</text>
<text text-anchor="start" x="-81.5" y="-22.3" font-family="Times,serif" font-size="14.00">index</text>
<text text-anchor="start" x="-81.5" y="-7.3" font-family="Times,serif" font-size="14.00">new</text>
<text text-anchor="start" x="-81.5" y="7.7" font-family="Times,serif" font-size="14.00">show</text>
<text text-anchor="start" x="-81.5" y="22.7" font-family="Times,serif" font-size="14.00">update</text>
<polyline fill="none" stroke="black" points="-89.5,30.5 73.5,30.5 "/>
<polyline fill="none" stroke="black" points="-89.5,54.5 73.5,54.5 "/>
<text text-anchor="start" x="-81.5" y="69.7" font-family="Times,serif" font-size="14.00">_layout</text>
<text text-anchor="start" x="-81.5" y="84.7" font-family="Times,serif" font-size="14.00">set_summary_phase</text>
<text text-anchor="start" x="-81.5" y="99.7" font-family="Times,serif" font-size="14.00">summary_phase_params</text>
</g>
<!-- EstablishmentsController -->
<g id="node13" class="node"><title>EstablishmentsController</title>
<path fill="none" stroke="black" d="M120.5,107.5C120.5,107.5 251.5,107.5 251.5,107.5 257.5,107.5 263.5,101.5 263.5,95.5 263.5,95.5 263.5,-93.5 263.5,-93.5 263.5,-99.5 257.5,-105.5 251.5,-105.5 251.5,-105.5 120.5,-105.5 120.5,-105.5 114.5,-105.5 108.5,-99.5 108.5,-93.5 108.5,-93.5 108.5,95.5 108.5,95.5 108.5,101.5 114.5,107.5 120.5,107.5"/>
<text text-anchor="middle" x="186" y="-90.3" font-family="Times,serif" font-size="14.00">EstablishmentsController</text>
<polyline fill="none" stroke="black" points="108.5,-82.5 263.5,-82.5 "/>
<text text-anchor="start" x="116.5" y="-67.3" font-family="Times,serif" font-size="14.00">create</text>
<text text-anchor="start" x="116.5" y="-52.3" font-family="Times,serif" font-size="14.00">destroy</text>
<text text-anchor="start" x="116.5" y="-37.3" font-family="Times,serif" font-size="14.00">edit</text>
<text text-anchor="start" x="116.5" y="-22.3" font-family="Times,serif" font-size="14.00">index</text>
<text text-anchor="start" x="116.5" y="-7.3" font-family="Times,serif" font-size="14.00">new</text>
<text text-anchor="start" x="116.5" y="7.7" font-family="Times,serif" font-size="14.00">show</text>
<text text-anchor="start" x="116.5" y="22.7" font-family="Times,serif" font-size="14.00">update</text>
<polyline fill="none" stroke="black" points="108.5,30.5 263.5,30.5 "/>
<polyline fill="none" stroke="black" points="108.5,54.5 263.5,54.5 "/>
<text text-anchor="start" x="116.5" y="69.7" font-family="Times,serif" font-size="14.00">_layout</text>
<text text-anchor="start" x="116.5" y="84.7" font-family="Times,serif" font-size="14.00">establishment_params</text>
<text text-anchor="start" x="116.5" y="99.7" font-family="Times,serif" font-size="14.00">set_establishment</text>
</g>
</g>
</svg>
