<?xml version="1.0" encoding="UTF-8" standalone="no"?>
<!DOCTYPE svg PUBLIC "-//W3C//DTD SVG 1.1//EN"
 "http://www.w3.org/Graphics/SVG/1.1/DTD/svg11.dtd">
<!-- Generated by graphviz version 2.38.0 (20140413.2041)
 -->
<!-- Title: controllers_diagram Pages: 1 -->
<svg width="753pt" height="617pt"
 viewBox="0.00 0.00 753.50 617.50" xmlns="http://www.w3.org/2000/svg" xmlns:xlink="http://www.w3.org/1999/xlink">
<g id="graph0" class="graph" transform="scale(1 1) rotate(0) translate(291.5 362)">
<title>controllers_diagram</title>
<polygon fill="none" stroke="none" points="-291.5,255.5 -291.5,-362 462,-362 462,255.5 -291.5,255.5"/>
<!-- _diagram_info -->
<g id="node1" class="node"><title>_diagram_info</title>
<text text-anchor="start" x="-244" y="152.4" font-family="Times,serif" font-size="13.00">Controllers diagram</text>
<text text-anchor="start" x="-244" y="166.4" font-family="Times,serif" font-size="13.00">Date: Mar 21 2017 &#45; 15:16</text>
<text text-anchor="start" x="-244" y="180.4" font-family="Times,serif" font-size="13.00">Migration version: 20170319143119</text>
<text text-anchor="start" x="-244" y="194.4" font-family="Times,serif" font-size="13.00">Generated by RailRoady 1.5.2</text>
<text text-anchor="start" x="-244" y="208.4" font-family="Times,serif" font-size="13.00">http://railroady.prestonlee.com</text>
</g>
<!-- ApplicationController -->
<g id="node2" class="node"><title>ApplicationController</title>
<path fill="none" stroke="black" d="M-258,17C-258,17 -146,17 -146,17 -140,17 -134,11 -134,5 -134,5 -134,-65 -134,-65 -134,-71 -140,-77 -146,-77 -146,-77 -258,-77 -258,-77 -264,-77 -270,-71 -270,-65 -270,-65 -270,5 -270,5 -270,11 -264,17 -258,17"/>
<text text-anchor="middle" x="-202" y="-61.8" font-family="Times,serif" font-size="14.00">ApplicationController</text>
<polyline fill="none" stroke="black" points="-270,-54 -134,-54 "/>
<polyline fill="none" stroke="black" points="-270,-30 -134,-30 "/>
<polyline fill="none" stroke="black" points="-270,-6 -134,-6 "/>
<text text-anchor="start" x="-262" y="9.2" font-family="Times,serif" font-size="14.00">_layout</text>
</g>
<!-- Users::OmniauthCallbacksController -->
<g id="node3" class="node"><title>Users::OmniauthCallbacksController</title>
<path fill="none" stroke="black" d="M12,233C12,233 206,233 206,233 212,233 218,227 218,221 218,221 218,151 218,151 218,145 212,139 206,139 206,139 12,139 12,139 6,139 0,145 0,151 0,151 0,221 0,221 0,227 6,233 12,233"/>
<text text-anchor="middle" x="109" y="154.2" font-family="Times,serif" font-size="14.00">Users::OmniauthCallbacksController</text>
<polyline fill="none" stroke="black" points="0,162 218,162 "/>
<polyline fill="none" stroke="black" points="0,186 218,186 "/>
<polyline fill="none" stroke="black" points="0,210 218,210 "/>
<text text-anchor="start" x="8" y="225.2" font-family="Times,serif" font-size="14.00">_layout</text>
</g>
<!-- Users::RegistrationsController -->
<g id="node4" class="node"><title>Users::RegistrationsController</title>
<path fill="none" stroke="black" d="M264,251C264,251 446,251 446,251 452,251 458,245 458,239 458,239 458,155 458,155 458,149 452,143 446,143 446,143 264,143 264,143 258,143 252,149 252,155 252,155 252,239 252,239 252,245 258,251 264,251"/>
<text text-anchor="middle" x="355" y="158.2" font-family="Times,serif" font-size="14.00">Users::RegistrationsController</text>
<polyline fill="none" stroke="black" points="252,166 458,166 "/>
<polyline fill="none" stroke="black" points="252,190 458,190 "/>
<text text-anchor="start" x="260" y="205.2" font-family="Times,serif" font-size="14.00">configure_account_update_params</text>
<text text-anchor="start" x="260" y="220.2" font-family="Times,serif" font-size="14.00">configure_sign_up_params</text>
<polyline fill="none" stroke="black" points="252,228 458,228 "/>
<text text-anchor="start" x="260" y="243.2" font-family="Times,serif" font-size="14.00">_layout</text>
</g>
<!-- Users::UnlocksController -->
<g id="node5" class="node"><title>Users::UnlocksController</title>
<path fill="none" stroke="black" d="M300.5,-19C300.5,-19 431.5,-19 431.5,-19 437.5,-19 443.5,-25 443.5,-31 443.5,-31 443.5,-101 443.5,-101 443.5,-107 437.5,-113 431.5,-113 431.5,-113 300.5,-113 300.5,-113 294.5,-113 288.5,-107 288.5,-101 288.5,-101 288.5,-31 288.5,-31 288.5,-25 294.5,-19 300.5,-19"/>
<text text-anchor="middle" x="366" y="-97.8" font-family="Times,serif" font-size="14.00">Users::UnlocksController</text>
<polyline fill="none" stroke="black" points="288.5,-90 443.5,-90 "/>
<polyline fill="none" stroke="black" points="288.5,-66 443.5,-66 "/>
<polyline fill="none" stroke="black" points="288.5,-42 443.5,-42 "/>
<text text-anchor="start" x="296.5" y="-26.8" font-family="Times,serif" font-size="14.00">_layout</text>
</g>
<!-- Users::ConfirmationsController -->
<g id="node6" class="node"><title>Users::ConfirmationsController</title>
<path fill="none" stroke="black" d="M-221.5,-235C-221.5,-235 -56.5,-235 -56.5,-235 -50.5,-235 -44.5,-241 -44.5,-247 -44.5,-247 -44.5,-317 -44.5,-317 -44.5,-323 -50.5,-329 -56.5,-329 -56.5,-329 -221.5,-329 -221.5,-329 -227.5,-329 -233.5,-323 -233.5,-317 -233.5,-317 -233.5,-247 -233.5,-247 -233.5,-241 -227.5,-235 -221.5,-235"/>
<text text-anchor="middle" x="-139" y="-313.8" font-family="Times,serif" font-size="14.00">Users::ConfirmationsController</text>
<polyline fill="none" stroke="black" points="-233.5,-306 -44.5,-306 "/>
<polyline fill="none" stroke="black" points="-233.5,-282 -44.5,-282 "/>
<polyline fill="none" stroke="black" points="-233.5,-258 -44.5,-258 "/>
<text text-anchor="start" x="-225.5" y="-242.8" font-family="Times,serif" font-size="14.00">_layout</text>
</g>
<!-- Users::PasswordsController -->
<g id="node7" class="node"><title>Users::PasswordsController</title>
<path fill="none" stroke="black" d="M299.5,107C299.5,107 442.5,107 442.5,107 448.5,107 454.5,101 454.5,95 454.5,95 454.5,25 454.5,25 454.5,19 448.5,13 442.5,13 442.5,13 299.5,13 299.5,13 293.5,13 287.5,19 287.5,25 287.5,25 287.5,95 287.5,95 287.5,101 293.5,107 299.5,107"/>
<text text-anchor="middle" x="371" y="28.2" font-family="Times,serif" font-size="14.00">Users::PasswordsController</text>
<polyline fill="none" stroke="black" points="287.5,36 454.5,36 "/>
<polyline fill="none" stroke="black" points="287.5,60 454.5,60 "/>
<polyline fill="none" stroke="black" points="287.5,84 454.5,84 "/>
<text text-anchor="start" x="295.5" y="99.2" font-family="Times,serif" font-size="14.00">_layout</text>
</g>
<!-- Users::SessionsController -->
<g id="node8" class="node"><title>Users::SessionsController</title>
<path fill="none" stroke="black" d="M-275.5,-109C-275.5,-109 -142.5,-109 -142.5,-109 -136.5,-109 -130.5,-115 -130.5,-121 -130.5,-121 -130.5,-191 -130.5,-191 -130.5,-197 -136.5,-203 -142.5,-203 -142.5,-203 -275.5,-203 -275.5,-203 -281.5,-203 -287.5,-197 -287.5,-191 -287.5,-191 -287.5,-121 -287.5,-121 -287.5,-115 -281.5,-109 -275.5,-109"/>
<text text-anchor="middle" x="-209" y="-187.8" font-family="Times,serif" font-size="14.00">Users::SessionsController</text>
<polyline fill="none" stroke="black" points="-287.5,-180 -130.5,-180 "/>
<polyline fill="none" stroke="black" points="-287.5,-156 -130.5,-156 "/>
<polyline fill="none" stroke="black" points="-287.5,-132 -130.5,-132 "/>
<text text-anchor="start" x="-279.5" y="-116.8" font-family="Times,serif" font-size="14.00">_layout</text>
</g>
<!-- DepartmentsController -->
<g id="node9" class="node"><title>DepartmentsController</title>
<path fill="none" stroke="black" d="M120,107.5C120,107.5 238,107.5 238,107.5 244,107.5 250,101.5 250,95.5 250,95.5 250,-93.5 250,-93.5 250,-99.5 244,-105.5 238,-105.5 238,-105.5 120,-105.5 120,-105.5 114,-105.5 108,-99.5 108,-93.5 108,-93.5 108,95.5 108,95.5 108,101.5 114,107.5 120,107.5"/>
<text text-anchor="middle" x="179" y="-90.3" font-family="Times,serif" font-size="14.00">DepartmentsController</text>
<polyline fill="none" stroke="black" points="108,-82.5 250,-82.5 "/>
<text text-anchor="start" x="116" y="-67.3" font-family="Times,serif" font-size="14.00">create</text>
<text text-anchor="start" x="116" y="-52.3" font-family="Times,serif" font-size="14.00">destroy</text>
<text text-anchor="start" x="116" y="-37.3" font-family="Times,serif" font-size="14.00">edit</text>
<text text-anchor="start" x="116" y="-22.3" font-family="Times,serif" font-size="14.00">index</text>
<text text-anchor="start" x="116" y="-7.3" font-family="Times,serif" font-size="14.00">new</text>
<text text-anchor="start" x="116" y="7.7" font-family="Times,serif" font-size="14.00">show</text>
<text text-anchor="start" x="116" y="22.7" font-family="Times,serif" font-size="14.00">update</text>
<polyline fill="none" stroke="black" points="108,30.5 250,30.5 "/>
<polyline fill="none" stroke="black" points="108,54.5 250,54.5 "/>
<text text-anchor="start" x="116" y="69.7" font-family="Times,serif" font-size="14.00">_layout</text>
<text text-anchor="start" x="116" y="84.7" font-family="Times,serif" font-size="14.00">department_params</text>
<text text-anchor="start" x="116" y="99.7" font-family="Times,serif" font-size="14.00">set_department</text>
</g>
<!-- SummariesController -->
<g id="node10" class="node"><title>SummariesController</title>
<path fill="none" stroke="black" d="M156,-144.5C156,-144.5 266,-144.5 266,-144.5 272,-144.5 278,-150.5 278,-156.5 278,-156.5 278,-345.5 278,-345.5 278,-351.5 272,-357.5 266,-357.5 266,-357.5 156,-357.5 156,-357.5 150,-357.5 144,-351.5 144,-345.5 144,-345.5 144,-156.5 144,-156.5 144,-150.5 150,-144.5 156,-144.5"/>
<text text-anchor="middle" x="211" y="-342.3" font-family="Times,serif" font-size="14.00">SummariesController</text>
<polyline fill="none" stroke="black" points="144,-334.5 278,-334.5 "/>
<text text-anchor="start" x="152" y="-319.3" font-family="Times,serif" font-size="14.00">create</text>
<text text-anchor="start" x="152" y="-304.3" font-family="Times,serif" font-size="14.00">destroy</text>
<text text-anchor="start" x="152" y="-289.3" font-family="Times,serif" font-size="14.00">edit</text>
<text text-anchor="start" x="152" y="-274.3" font-family="Times,serif" font-size="14.00">index</text>
<text text-anchor="start" x="152" y="-259.3" font-family="Times,serif" font-size="14.00">new</text>
<text text-anchor="start" x="152" y="-244.3" font-family="Times,serif" font-size="14.00">show</text>
<text text-anchor="start" x="152" y="-229.3" font-family="Times,serif" font-size="14.00">update</text>
<polyline fill="none" stroke="black" points="144,-221.5 278,-221.5 "/>
<polyline fill="none" stroke="black" points="144,-197.5 278,-197.5 "/>
<text text-anchor="start" x="152" y="-182.3" font-family="Times,serif" font-size="14.00">_layout</text>
<text text-anchor="start" x="152" y="-167.3" font-family="Times,serif" font-size="14.00">set_summary</text>
<text text-anchor="start" x="152" y="-152.3" font-family="Times,serif" font-size="14.00">summary_params</text>
</g>
<!-- DocumentsController -->
<g id="node11" class="node"><title>DocumentsController</title>
<path fill="none" stroke="black" d="M-6,-144.5C-6,-144.5 104,-144.5 104,-144.5 110,-144.5 116,-150.5 116,-156.5 116,-156.5 116,-345.5 116,-345.5 116,-351.5 110,-357.5 104,-357.5 104,-357.5 -6,-357.5 -6,-357.5 -12,-357.5 -18,-351.5 -18,-345.5 -18,-345.5 -18,-156.5 -18,-156.5 -18,-150.5 -12,-144.5 -6,-144.5"/>
<text text-anchor="middle" x="49" y="-342.3" font-family="Times,serif" font-size="14.00">DocumentsController</text>
<polyline fill="none" stroke="black" points="-18,-334.5 116,-334.5 "/>
<text text-anchor="start" x="-10" y="-319.3" font-family="Times,serif" font-size="14.00">create</text>
<text text-anchor="start" x="-10" y="-304.3" font-family="Times,serif" font-size="14.00">destroy</text>
<text text-anchor="start" x="-10" y="-289.3" font-family="Times,serif" font-size="14.00">edit</text>
<text text-anchor="start" x="-10" y="-274.3" font-family="Times,serif" font-size="14.00">index</text>
<text text-anchor="start" x="-10" y="-259.3" font-family="Times,serif" font-size="14.00">new</text>
<text text-anchor="start" x="-10" y="-244.3" font-family="Times,serif" font-size="14.00">show</text>
<text text-anchor="start" x="-10" y="-229.3" font-family="Times,serif" font-size="14.00">update</text>
<polyline fill="none" stroke="black" points="-18,-221.5 116,-221.5 "/>
<polyline fill="none" stroke="black" points="-18,-197.5 116,-197.5 "/>
<text text-anchor="start" x="-10" y="-182.3" font-family="Times,serif" font-size="14.00">_layout</text>
<text text-anchor="start" x="-10" y="-167.3" font-family="Times,serif" font-size="14.00">document_params</text>
<text text-anchor="start" x="-10" y="-152.3" font-family="Times,serif" font-size="14.00">set_document</text>
</g>
<!-- EstablishmentsController -->
<g id="node12" class="node"><title>EstablishmentsController</title>
<path fill="none" stroke="black" d="M-77.5,107.5C-77.5,107.5 53.5,107.5 53.5,107.5 59.5,107.5 65.5,101.5 65.5,95.5 65.5,95.5 65.5,-93.5 65.5,-93.5 65.5,-99.5 59.5,-105.5 53.5,-105.5 53.5,-105.5 -77.5,-105.5 -77.5,-105.5 -83.5,-105.5 -89.5,-99.5 -89.5,-93.5 -89.5,-93.5 -89.5,95.5 -89.5,95.5 -89.5,101.5 -83.5,107.5 -77.5,107.5"/>
<text text-anchor="middle" x="-12" y="-90.3" font-family="Times,serif" font-size="14.00">EstablishmentsController</text>
<polyline fill="none" stroke="black" points="-89.5,-82.5 65.5,-82.5 "/>
<text text-anchor="start" x="-81.5" y="-67.3" font-family="Times,serif" font-size="14.00">create</text>
<text text-anchor="start" x="-81.5" y="-52.3" font-family="Times,serif" font-size="14.00">destroy</text>
<text text-anchor="start" x="-81.5" y="-37.3" font-family="Times,serif" font-size="14.00">edit</text>
<text text-anchor="start" x="-81.5" y="-22.3" font-family="Times,serif" font-size="14.00">index</text>
<text text-anchor="start" x="-81.5" y="-7.3" font-family="Times,serif" font-size="14.00">new</text>
<text text-anchor="start" x="-81.5" y="7.7" font-family="Times,serif" font-size="14.00">show</text>
<text text-anchor="start" x="-81.5" y="22.7" font-family="Times,serif" font-size="14.00">update</text>
<polyline fill="none" stroke="black" points="-89.5,30.5 65.5,30.5 "/>
<polyline fill="none" stroke="black" points="-89.5,54.5 65.5,54.5 "/>
<text text-anchor="start" x="-81.5" y="69.7" font-family="Times,serif" font-size="14.00">_layout</text>
<text text-anchor="start" x="-81.5" y="84.7" font-family="Times,serif" font-size="14.00">establishment_params</text>
<text text-anchor="start" x="-81.5" y="99.7" font-family="Times,serif" font-size="14.00">set_establishment</text>
</g>
</g>
</svg>
