<?xml version="1.0" encoding="UTF-8" standalone="no"?>
<!DOCTYPE svg PUBLIC "-//W3C//DTD SVG 1.1//EN"
 "http://www.w3.org/Graphics/SVG/1.1/DTD/svg11.dtd">
<!-- Generated by graphviz version 2.38.0 (20140413.2041)
 -->
<!-- Title: models_diagram Pages: 1 -->
<svg width="466pt" height="374pt"
 viewBox="0.00 0.00 466.34 374.00" xmlns="http://www.w3.org/2000/svg" xmlns:xlink="http://www.w3.org/1999/xlink">
<g id="graph0" class="graph" transform="scale(1 1) rotate(0) translate(4 370)">
<title>models_diagram</title>
<polygon fill="none" stroke="none" points="-4,4 -4,-370 462.343,-370 462.343,4 -4,4"/>
<!-- _diagram_info -->
<g id="node1" class="node"><title>_diagram_info</title>
<text text-anchor="start" x="8" y="-351.6" font-family="Times,serif" font-size="13.00">Models diagram</text>
<text text-anchor="start" x="8" y="-337.6" font-family="Times,serif" font-size="13.00">Date: Mar 17 2017 &#45; 21:27</text>
<text text-anchor="start" x="8" y="-323.6" font-family="Times,serif" font-size="13.00">Migration version: 20170318002423</text>
<text text-anchor="start" x="8" y="-309.6" font-family="Times,serif" font-size="13.00">Generated by RailRoady 1.5.2</text>
<text text-anchor="start" x="8" y="-295.6" font-family="Times,serif" font-size="13.00">http://railroady.prestonlee.com</text>
</g>
<!-- Summary -->
<g id="node2" class="node"><title>Summary</title>
<ellipse fill="none" stroke="black" cx="142" cy="-162" rx="46.2923" ry="18"/>
<text text-anchor="middle" x="142" y="-158.3" font-family="Times,serif" font-size="14.00">Summary</text>
</g>
<!-- SummaryPhase -->
<g id="node5" class="node"><title>SummaryPhase</title>
<ellipse fill="none" stroke="black" cx="79" cy="-90" rx="66.0889" ry="18"/>
<text text-anchor="middle" x="79" y="-86.3" font-family="Times,serif" font-size="14.00">SummaryPhase</text>
</g>
<!-- Summary&#45;&gt;SummaryPhase -->
<g id="edge1" class="edge"><title>Summary&#45;&gt;SummaryPhase</title>
<path fill="none" stroke="#649f60" d="M121.96,-138.734C115.296,-131.329 107.839,-123.043 101.032,-115.481"/>
<ellipse fill="none" stroke="#649f60" cx="124.712" cy="-141.791" rx="4.00002" ry="4.00002"/>
<polygon fill="#649f60" stroke="#649f60" points="100.66,-115.066 97.3149,-104.623 97.3149,-111.35 93.9701,-107.633 93.9701,-107.633 93.9701,-107.633 97.3149,-111.35 90.6252,-110.644 100.66,-115.066 100.66,-115.066"/>
</g>
<!-- User -->
<g id="node8" class="node"><title>User</title>
<ellipse fill="none" stroke="black" cx="228" cy="-90" rx="27.0966" ry="18"/>
<text text-anchor="middle" x="228" y="-86.3" font-family="Times,serif" font-size="14.00">User</text>
</g>
<!-- Summary&#45;&gt;User -->
<g id="edge3" class="edge"><title>Summary&#45;&gt;User</title>
<path fill="none" stroke="#fa6fd6" d="M168.899,-139.105C179.955,-130.107 192.67,-119.757 203.467,-110.969"/>
<polygon fill="#fa6fd6" stroke="#fa6fd6" points="168.842,-139.152 158.245,-141.975 164.964,-142.308 161.086,-145.465 161.086,-145.465 161.086,-145.465 164.964,-142.308 163.927,-148.955 168.842,-139.152 168.842,-139.152"/>
<polygon fill="#fa6fd6" stroke="#fa6fd6" points="203.535,-110.913 214.132,-108.091 207.413,-107.757 211.291,-104.6 211.291,-104.6 211.291,-104.6 207.413,-107.757 208.45,-101.11 203.535,-110.913 203.535,-110.913"/>
</g>
<!-- SummaryUser -->
<g id="node9" class="node"><title>SummaryUser</title>
<ellipse fill="none" stroke="black" cx="217" cy="-18" rx="62.2891" ry="18"/>
<text text-anchor="middle" x="217" y="-14.3" font-family="Times,serif" font-size="14.00">SummaryUser</text>
</g>
<!-- Summary&#45;&gt;SummaryUser -->
<g id="edge2" class="edge"><title>Summary&#45;&gt;SummaryUser</title>
<path fill="none" stroke="#530500" d="M154.716,-136.925C168.231,-111.336 189.523,-71.0229 203.375,-44.7966"/>
<ellipse fill="none" stroke="#530500" cx="152.766" cy="-140.616" rx="4.00002" ry="4.00002"/>
<polygon fill="#530500" stroke="#530500" points="203.443,-44.6674 212.093,-37.9266 205.778,-40.2462 208.114,-35.825 208.114,-35.825 208.114,-35.825 205.778,-40.2462 204.134,-33.7233 203.443,-44.6674 203.443,-44.6674"/>
</g>
<!-- Department -->
<g id="node3" class="node"><title>Department</title>
<ellipse fill="none" stroke="black" cx="259" cy="-162" rx="52.7911" ry="18"/>
<text text-anchor="middle" x="259" y="-158.3" font-family="Times,serif" font-size="14.00">Department</text>
</g>
<!-- Department&#45;&gt;User -->
<g id="edge4" class="edge"><title>Department&#45;&gt;User</title>
<path fill="none" stroke="#f9af73" d="M248.245,-136.714C245.471,-130.451 242.473,-123.68 239.655,-117.318"/>
<ellipse fill="none" stroke="#f9af73" cx="249.876" cy="-140.398" rx="4.00002" ry="4.00002"/>
<polygon fill="#f9af73" stroke="#f9af73" points="239.484,-116.933 239.55,-105.967 237.46,-112.361 235.435,-107.789 235.435,-107.789 235.435,-107.789 237.46,-112.361 231.321,-109.611 239.484,-116.933 239.484,-116.933"/>
</g>
<!-- City -->
<g id="node4" class="node"><title>City</title>
<ellipse fill="none" stroke="black" cx="259" cy="-327" rx="27" ry="18"/>
<text text-anchor="middle" x="259" y="-323.3" font-family="Times,serif" font-size="14.00">City</text>
</g>
<!-- Establishment -->
<g id="node10" class="node"><title>Establishment</title>
<ellipse fill="none" stroke="black" cx="259" cy="-234" rx="61.1893" ry="18"/>
<text text-anchor="middle" x="259" y="-230.3" font-family="Times,serif" font-size="14.00">Establishment</text>
</g>
<!-- City&#45;&gt;Establishment -->
<g id="edge5" class="edge"><title>City&#45;&gt;Establishment</title>
<path fill="none" stroke="#db711c" d="M259,-300.729C259,-288.725 259,-274.362 259,-262.129"/>
<ellipse fill="none" stroke="#db711c" cx="259" cy="-304.884" rx="4" ry="4"/>
<polygon fill="#db711c" stroke="#db711c" points="259,-262.04 263.5,-252.04 259,-257.04 259,-252.04 259,-252.04 259,-252.04 259,-257.04 254.5,-252.04 259,-262.04 259,-262.04"/>
</g>
<!-- Document -->
<g id="node7" class="node"><title>Document</title>
<ellipse fill="none" stroke="black" cx="79" cy="-18" rx="48.1917" ry="18"/>
<text text-anchor="middle" x="79" y="-14.3" font-family="Times,serif" font-size="14.00">Document</text>
</g>
<!-- SummaryPhase&#45;&gt;Document -->
<g id="edge6" class="edge"><title>SummaryPhase&#45;&gt;Document</title>
<path fill="none" stroke="#23ca41" d="M79,-63.6398C79,-58.0629 79,-52.1319 79,-46.4761"/>
<ellipse fill="none" stroke="#23ca41" cx="79" cy="-67.6966" rx="4" ry="4"/>
<polygon fill="#23ca41" stroke="#23ca41" points="79.0001,-46.1043 83.5,-36.1043 79,-41.1043 79,-36.1043 79,-36.1043 79,-36.1043 79,-41.1043 74.5,-36.1044 79.0001,-46.1043 79.0001,-46.1043"/>
</g>
<!-- ApplicationRecord -->
<g id="node6" class="node"><title>ApplicationRecord</title>
<ellipse fill="none" stroke="black" cx="381" cy="-327" rx="77.1866" ry="18"/>
<text text-anchor="middle" x="381" y="-323.3" font-family="Times,serif" font-size="14.00">ApplicationRecord</text>
</g>
<!-- User&#45;&gt;SummaryUser -->
<g id="edge7" class="edge"><title>User&#45;&gt;SummaryUser</title>
<path fill="none" stroke="#3aa159" d="M224.069,-63.9868C223.168,-58.2493 222.205,-52.1211 221.289,-46.2929"/>
<ellipse fill="none" stroke="#3aa159" cx="224.716" cy="-68.1034" rx="4.00001" ry="4.00001"/>
<polygon fill="#3aa159" stroke="#3aa159" points="221.267,-46.1541 224.16,-35.5767 220.491,-41.2147 219.715,-36.2753 219.715,-36.2753 219.715,-36.2753 220.491,-41.2147 215.269,-36.9739 221.267,-46.1541 221.267,-46.1541"/>
</g>
<!-- Establishment&#45;&gt;Department -->
<g id="edge8" class="edge"><title>Establishment&#45;&gt;Department</title>
<path fill="none" stroke="#6cc93b" d="M259,-207.64C259,-202.063 259,-196.132 259,-190.476"/>
<ellipse fill="none" stroke="#6cc93b" cx="259" cy="-211.697" rx="4" ry="4"/>
<polygon fill="#6cc93b" stroke="#6cc93b" points="259,-190.104 263.5,-180.104 259,-185.104 259,-180.104 259,-180.104 259,-180.104 259,-185.104 254.5,-180.104 259,-190.104 259,-190.104"/>
</g>
</g>
</svg>
