<?xml version="1.0" encoding="UTF-8" standalone="no"?>
<!DOCTYPE svg PUBLIC "-//W3C//DTD SVG 1.1//EN"
 "http://www.w3.org/Graphics/SVG/1.1/DTD/svg11.dtd">
<!-- Generated by graphviz version 2.38.0 (20140413.2041)
 -->
<!-- Title: models_diagram Pages: 1 -->
<svg width="893pt" height="1100pt"
 viewBox="0.00 0.00 893.00 1100.00" xmlns="http://www.w3.org/2000/svg" xmlns:xlink="http://www.w3.org/1999/xlink">
<g id="graph0" class="graph" transform="scale(1 1) rotate(0) translate(4 1096)">
<title>models_diagram</title>
<polygon fill="none" stroke="none" points="-4,4 -4,-1096 889,-1096 889,4 -4,4"/>
<!-- _diagram_info -->
<g id="node1" class="node"><title>_diagram_info</title>
<text text-anchor="start" x="8" y="-1070.6" font-family="Times,serif" font-size="13.00">Models diagram</text>
<text text-anchor="start" x="8" y="-1056.6" font-family="Times,serif" font-size="13.00">Date: Mar 21 2017 &#45; 15:16</text>
<text text-anchor="start" x="8" y="-1042.6" font-family="Times,serif" font-size="13.00">Migration version: 20170319143119</text>
<text text-anchor="start" x="8" y="-1028.6" font-family="Times,serif" font-size="13.00">Generated by RailRoady 1.5.2</text>
<text text-anchor="start" x="8" y="-1014.6" font-family="Times,serif" font-size="13.00">http://railroady.prestonlee.com</text>
</g>
<!-- Summary -->
<g id="node2" class="node"><title>Summary</title>
<path fill="none" stroke="black" d="M540.5,-669.5C540.5,-669.5 767.5,-669.5 767.5,-669.5 773.5,-669.5 779.5,-675.5 779.5,-681.5 779.5,-681.5 779.5,-808.5 779.5,-808.5 779.5,-814.5 773.5,-820.5 767.5,-820.5 767.5,-820.5 540.5,-820.5 540.5,-820.5 534.5,-820.5 528.5,-814.5 528.5,-808.5 528.5,-808.5 528.5,-681.5 528.5,-681.5 528.5,-675.5 534.5,-669.5 540.5,-669.5"/>
<text text-anchor="middle" x="654" y="-805.3" font-family="Times,serif" font-size="14.00">Summary</text>
<polyline fill="none" stroke="black" points="528.5,-797.5 779.5,-797.5 "/>
<text text-anchor="start" x="536.5" y="-782.3" font-family="Times,serif" font-size="14.00">id :integer</text>
<text text-anchor="start" x="536.5" y="-767.3" font-family="Times,serif" font-size="14.00">description :character varying</text>
<text text-anchor="start" x="536.5" y="-752.3" font-family="Times,serif" font-size="14.00">note :text</text>
<text text-anchor="start" x="536.5" y="-737.3" font-family="Times,serif" font-size="14.00">resolution :integer</text>
<text text-anchor="start" x="536.5" y="-722.3" font-family="Times,serif" font-size="14.00">starting_day :timestamp without time zone</text>
<text text-anchor="start" x="536.5" y="-707.3" font-family="Times,serif" font-size="14.00">close_day :timestamp without time zone</text>
<text text-anchor="start" x="536.5" y="-692.3" font-family="Times,serif" font-size="14.00">created_at :timestamp without time zone</text>
<text text-anchor="start" x="536.5" y="-677.3" font-family="Times,serif" font-size="14.00">updated_at :timestamp without time zone</text>
</g>
<!-- SummaryPhase -->
<g id="node5" class="node"><title>SummaryPhase</title>
<path fill="none" stroke="black" d="M653,-166C653,-166 873,-166 873,-166 879,-166 885,-172 885,-178 885,-178 885,-260 885,-260 885,-266 879,-272 873,-272 873,-272 653,-272 653,-272 647,-272 641,-266 641,-260 641,-260 641,-178 641,-178 641,-172 647,-166 653,-166"/>
<text text-anchor="middle" x="763" y="-256.8" font-family="Times,serif" font-size="14.00">SummaryPhase</text>
<polyline fill="none" stroke="black" points="641,-249 885,-249 "/>
<text text-anchor="start" x="649" y="-233.8" font-family="Times,serif" font-size="14.00">id :integer</text>
<text text-anchor="start" x="649" y="-218.8" font-family="Times,serif" font-size="14.00">summary_id :integer</text>
<text text-anchor="start" x="649" y="-203.8" font-family="Times,serif" font-size="14.00">phase_id :integer</text>
<text text-anchor="start" x="649" y="-188.8" font-family="Times,serif" font-size="14.00">created_at :timestamp without time zone</text>
<text text-anchor="start" x="649" y="-173.8" font-family="Times,serif" font-size="14.00">updated_at :timestamp without time zone</text>
</g>
<!-- Summary&#45;&gt;SummaryPhase -->
<g id="edge1" class="edge"><title>Summary&#45;&gt;SummaryPhase</title>
<path fill="none" stroke="#0631e8" d="M786.026,-675.192C799.597,-662.938 811.499,-648.91 820,-633 886.393,-508.736 857.295,-451.863 820,-316 816.721,-304.053 811.526,-292.088 805.576,-280.858"/>
<ellipse fill="none" stroke="#0631e8" cx="782.702" cy="-678.076" rx="4.00002" ry="4.00002"/>
<polygon fill="#0631e8" stroke="#0631e8" points="805.524,-280.764 804.599,-269.838 803.095,-276.394 800.665,-272.024 800.665,-272.024 800.665,-272.024 803.095,-276.394 796.732,-274.211 805.524,-280.764 805.524,-280.764"/>
</g>
<!-- User -->
<g id="node9" class="node"><title>User</title>
<path fill="none" stroke="black" d="M209.5,-316.5C209.5,-316.5 498.5,-316.5 498.5,-316.5 504.5,-316.5 510.5,-322.5 510.5,-328.5 510.5,-328.5 510.5,-620.5 510.5,-620.5 510.5,-626.5 504.5,-632.5 498.5,-632.5 498.5,-632.5 209.5,-632.5 209.5,-632.5 203.5,-632.5 197.5,-626.5 197.5,-620.5 197.5,-620.5 197.5,-328.5 197.5,-328.5 197.5,-322.5 203.5,-316.5 209.5,-316.5"/>
<text text-anchor="middle" x="354" y="-617.3" font-family="Times,serif" font-size="14.00">User</text>
<polyline fill="none" stroke="black" points="197.5,-609.5 510.5,-609.5 "/>
<text text-anchor="start" x="205.5" y="-594.3" font-family="Times,serif" font-size="14.00">id :integer</text>
<text text-anchor="start" x="205.5" y="-579.3" font-family="Times,serif" font-size="14.00">email :character varying</text>
<text text-anchor="start" x="205.5" y="-564.3" font-family="Times,serif" font-size="14.00">encrypted_password :character varying</text>
<text text-anchor="start" x="205.5" y="-549.3" font-family="Times,serif" font-size="14.00">reset_password_token :character varying</text>
<text text-anchor="start" x="205.5" y="-534.3" font-family="Times,serif" font-size="14.00">reset_password_sent_at :timestamp without time zone</text>
<text text-anchor="start" x="205.5" y="-519.3" font-family="Times,serif" font-size="14.00">remember_created_at :timestamp without time zone</text>
<text text-anchor="start" x="205.5" y="-504.3" font-family="Times,serif" font-size="14.00">sign_in_count :integer</text>
<text text-anchor="start" x="205.5" y="-489.3" font-family="Times,serif" font-size="14.00">current_sign_in_at :timestamp without time zone</text>
<text text-anchor="start" x="205.5" y="-474.3" font-family="Times,serif" font-size="14.00">last_sign_in_at :timestamp without time zone</text>
<text text-anchor="start" x="205.5" y="-459.3" font-family="Times,serif" font-size="14.00">current_sign_in_ip :inet</text>
<text text-anchor="start" x="205.5" y="-444.3" font-family="Times,serif" font-size="14.00">last_sign_in_ip :inet</text>
<text text-anchor="start" x="205.5" y="-429.3" font-family="Times,serif" font-size="14.00">name :character varying</text>
<text text-anchor="start" x="205.5" y="-414.3" font-family="Times,serif" font-size="14.00">sure_name :character varying</text>
<text text-anchor="start" x="205.5" y="-399.3" font-family="Times,serif" font-size="14.00">last_name :character varying</text>
<text text-anchor="start" x="205.5" y="-384.3" font-family="Times,serif" font-size="14.00">rut :character varying</text>
<text text-anchor="start" x="205.5" y="-369.3" font-family="Times,serif" font-size="14.00">department_id :integer</text>
<text text-anchor="start" x="205.5" y="-354.3" font-family="Times,serif" font-size="14.00">created_at :timestamp without time zone</text>
<text text-anchor="start" x="205.5" y="-339.3" font-family="Times,serif" font-size="14.00">updated_at :timestamp without time zone</text>
<text text-anchor="start" x="205.5" y="-324.3" font-family="Times,serif" font-size="14.00">role :integer</text>
</g>
<!-- Summary&#45;&gt;User -->
<g id="edge4" class="edge"><title>Summary&#45;&gt;User</title>
<path fill="none" stroke="#fd063c" d="M559.016,-662.907C547.505,-652.892 535.952,-642.75 525,-633 522.81,-631.05 520.606,-629.084 518.392,-627.104"/>
<polygon fill="#fd063c" stroke="#fd063c" points="559.016,-662.907 563.616,-672.862 562.792,-666.185 566.567,-669.464 566.567,-669.464 566.567,-669.464 562.792,-666.185 569.517,-666.066 559.016,-662.907 559.016,-662.907"/>
<polygon fill="#fd063c" stroke="#fd063c" points="518.272,-626.997 513.827,-616.972 514.548,-623.66 510.824,-620.323 510.824,-620.323 510.824,-620.323 514.548,-623.66 507.821,-623.675 518.272,-626.997 518.272,-626.997"/>
</g>
<!-- Phase -->
<g id="node10" class="node"><title>Phase</title>
<path fill="none" stroke="black" d="M579,-429C579,-429 799,-429 799,-429 805,-429 811,-435 811,-441 811,-441 811,-508 811,-508 811,-514 805,-520 799,-520 799,-520 579,-520 579,-520 573,-520 567,-514 567,-508 567,-508 567,-441 567,-441 567,-435 573,-429 579,-429"/>
<text text-anchor="middle" x="689" y="-504.8" font-family="Times,serif" font-size="14.00">Phase</text>
<polyline fill="none" stroke="black" points="567,-497 811,-497 "/>
<text text-anchor="start" x="575" y="-481.8" font-family="Times,serif" font-size="14.00">id :integer</text>
<text text-anchor="start" x="575" y="-466.8" font-family="Times,serif" font-size="14.00">name :character varying</text>
<text text-anchor="start" x="575" y="-451.8" font-family="Times,serif" font-size="14.00">created_at :timestamp without time zone</text>
<text text-anchor="start" x="575" y="-436.8" font-family="Times,serif" font-size="14.00">updated_at :timestamp without time zone</text>
</g>
<!-- Summary&#45;&gt;Phase -->
<g id="edge2" class="edge"><title>Summary&#45;&gt;Phase</title>
<path fill="none" stroke="#09a6bc" d="M665.053,-659.208C670.551,-617.031 677.036,-567.283 681.87,-530.2"/>
<polygon fill="#09a6bc" stroke="#09a6bc" points="665.042,-659.292 659.287,-668.626 664.396,-664.25 663.749,-669.208 663.749,-669.208 663.749,-669.208 664.396,-664.25 668.212,-669.789 665.042,-659.292 665.042,-659.292"/>
<polygon fill="#09a6bc" stroke="#09a6bc" points="681.894,-530.01 687.649,-520.676 682.541,-525.052 683.187,-520.094 683.187,-520.094 683.187,-520.094 682.541,-525.052 678.725,-519.512 681.894,-530.01 681.894,-530.01"/>
</g>
<!-- SummaryUser -->
<g id="node11" class="node"><title>SummaryUser</title>
<path fill="none" stroke="black" d="M355,-158.5C355,-158.5 575,-158.5 575,-158.5 581,-158.5 587,-164.5 587,-170.5 587,-170.5 587,-267.5 587,-267.5 587,-273.5 581,-279.5 575,-279.5 575,-279.5 355,-279.5 355,-279.5 349,-279.5 343,-273.5 343,-267.5 343,-267.5 343,-170.5 343,-170.5 343,-164.5 349,-158.5 355,-158.5"/>
<text text-anchor="middle" x="465" y="-264.3" font-family="Times,serif" font-size="14.00">SummaryUser</text>
<polyline fill="none" stroke="black" points="343,-256.5 587,-256.5 "/>
<text text-anchor="start" x="351" y="-241.3" font-family="Times,serif" font-size="14.00">id :integer</text>
<text text-anchor="start" x="351" y="-226.3" font-family="Times,serif" font-size="14.00">summary_id :integer</text>
<text text-anchor="start" x="351" y="-211.3" font-family="Times,serif" font-size="14.00">user_id :integer</text>
<text text-anchor="start" x="351" y="-196.3" font-family="Times,serif" font-size="14.00">created_at :timestamp without time zone</text>
<text text-anchor="start" x="351" y="-181.3" font-family="Times,serif" font-size="14.00">updated_at :timestamp without time zone</text>
<text text-anchor="start" x="351" y="-166.3" font-family="Times,serif" font-size="14.00">type :integer</text>
</g>
<!-- Summary&#45;&gt;SummaryUser -->
<g id="edge3" class="edge"><title>Summary&#45;&gt;SummaryUser</title>
<path fill="none" stroke="#1d389c" d="M574.615,-662.449C568.198,-653.013 562.476,-643.126 558,-633 500.635,-503.215 564.607,-450.704 520,-316 516.997,-306.933 513.086,-297.766 508.732,-288.88"/>
<ellipse fill="none" stroke="#1d389c" cx="577.096" cy="-665.969" rx="4.00002" ry="4.00002"/>
<polygon fill="#1d389c" stroke="#1d389c" points="508.61,-288.64 508.061,-277.688 506.332,-284.189 504.055,-279.738 504.055,-279.738 504.055,-279.738 506.332,-284.189 500.049,-281.788 508.61,-288.64 508.61,-288.64"/>
</g>
<!-- Department -->
<g id="node3" class="node"><title>Department</title>
<path fill="none" stroke="black" d="M244,-692C244,-692 464,-692 464,-692 470,-692 476,-698 476,-704 476,-704 476,-786 476,-786 476,-792 470,-798 464,-798 464,-798 244,-798 244,-798 238,-798 232,-792 232,-786 232,-786 232,-704 232,-704 232,-698 238,-692 244,-692"/>
<text text-anchor="middle" x="354" y="-782.8" font-family="Times,serif" font-size="14.00">Department</text>
<polyline fill="none" stroke="black" points="232,-775 476,-775 "/>
<text text-anchor="start" x="240" y="-759.8" font-family="Times,serif" font-size="14.00">id :integer</text>
<text text-anchor="start" x="240" y="-744.8" font-family="Times,serif" font-size="14.00">name :character varying</text>
<text text-anchor="start" x="240" y="-729.8" font-family="Times,serif" font-size="14.00">establishment_id :integer</text>
<text text-anchor="start" x="240" y="-714.8" font-family="Times,serif" font-size="14.00">created_at :timestamp without time zone</text>
<text text-anchor="start" x="240" y="-699.8" font-family="Times,serif" font-size="14.00">updated_at :timestamp without time zone</text>
</g>
<!-- Department&#45;&gt;User -->
<g id="edge5" class="edge"><title>Department&#45;&gt;User</title>
<path fill="none" stroke="#d88ccd" d="M354,-683.515C354,-670.936 354,-657.104 354,-642.734"/>
<ellipse fill="none" stroke="#d88ccd" cx="354" cy="-687.912" rx="4" ry="4"/>
<polygon fill="#d88ccd" stroke="#d88ccd" points="354,-642.709 358.5,-632.709 354,-637.709 354,-632.709 354,-632.709 354,-632.709 354,-637.709 349.5,-632.709 354,-642.709 354,-642.709"/>
</g>
<!-- City -->
<g id="node4" class="node"><title>City</title>
<path fill="none" stroke="black" d="M244,-1000.5C244,-1000.5 464,-1000.5 464,-1000.5 470,-1000.5 476,-1006.5 476,-1012.5 476,-1012.5 476,-1079.5 476,-1079.5 476,-1085.5 470,-1091.5 464,-1091.5 464,-1091.5 244,-1091.5 244,-1091.5 238,-1091.5 232,-1085.5 232,-1079.5 232,-1079.5 232,-1012.5 232,-1012.5 232,-1006.5 238,-1000.5 244,-1000.5"/>
<text text-anchor="middle" x="354" y="-1076.3" font-family="Times,serif" font-size="14.00">City</text>
<polyline fill="none" stroke="black" points="232,-1068.5 476,-1068.5 "/>
<text text-anchor="start" x="240" y="-1053.3" font-family="Times,serif" font-size="14.00">id :integer</text>
<text text-anchor="start" x="240" y="-1038.3" font-family="Times,serif" font-size="14.00">name :character varying</text>
<text text-anchor="start" x="240" y="-1023.3" font-family="Times,serif" font-size="14.00">created_at :timestamp without time zone</text>
<text text-anchor="start" x="240" y="-1008.3" font-family="Times,serif" font-size="14.00">updated_at :timestamp without time zone</text>
</g>
<!-- Establishment -->
<g id="node12" class="node"><title>Establishment</title>
<path fill="none" stroke="black" d="M244,-857.5C244,-857.5 464,-857.5 464,-857.5 470,-857.5 476,-863.5 476,-869.5 476,-869.5 476,-951.5 476,-951.5 476,-957.5 470,-963.5 464,-963.5 464,-963.5 244,-963.5 244,-963.5 238,-963.5 232,-957.5 232,-951.5 232,-951.5 232,-869.5 232,-869.5 232,-863.5 238,-857.5 244,-857.5"/>
<text text-anchor="middle" x="354" y="-948.3" font-family="Times,serif" font-size="14.00">Establishment</text>
<polyline fill="none" stroke="black" points="232,-940.5 476,-940.5 "/>
<text text-anchor="start" x="240" y="-925.3" font-family="Times,serif" font-size="14.00">id :integer</text>
<text text-anchor="start" x="240" y="-910.3" font-family="Times,serif" font-size="14.00">name :character varying</text>
<text text-anchor="start" x="240" y="-895.3" font-family="Times,serif" font-size="14.00">city_id :integer</text>
<text text-anchor="start" x="240" y="-880.3" font-family="Times,serif" font-size="14.00">created_at :timestamp without time zone</text>
<text text-anchor="start" x="240" y="-865.3" font-family="Times,serif" font-size="14.00">updated_at :timestamp without time zone</text>
</g>
<!-- City&#45;&gt;Establishment -->
<g id="edge6" class="edge"><title>City&#45;&gt;Establishment</title>
<path fill="none" stroke="#38c71c" d="M354,-992.111C354,-986.148 354,-980.03 354,-973.96"/>
<ellipse fill="none" stroke="#38c71c" cx="354" cy="-996.175" rx="4" ry="4"/>
<polygon fill="#38c71c" stroke="#38c71c" points="354,-973.824 358.5,-963.824 354,-968.824 354,-963.824 354,-963.824 354,-963.824 354,-968.824 349.5,-963.824 354,-973.824 354,-973.824"/>
</g>
<!-- Document -->
<g id="node8" class="node"><title>Document</title>
<path fill="none" stroke="black" d="M653,-0.5C653,-0.5 873,-0.5 873,-0.5 879,-0.5 885,-6.5 885,-12.5 885,-12.5 885,-109.5 885,-109.5 885,-115.5 879,-121.5 873,-121.5 873,-121.5 653,-121.5 653,-121.5 647,-121.5 641,-115.5 641,-109.5 641,-109.5 641,-12.5 641,-12.5 641,-6.5 647,-0.5 653,-0.5"/>
<text text-anchor="middle" x="763" y="-106.3" font-family="Times,serif" font-size="14.00">Document</text>
<polyline fill="none" stroke="black" points="641,-98.5 885,-98.5 "/>
<text text-anchor="start" x="649" y="-83.3" font-family="Times,serif" font-size="14.00">id :integer</text>
<text text-anchor="start" x="649" y="-68.3" font-family="Times,serif" font-size="14.00">name :character varying</text>
<text text-anchor="start" x="649" y="-53.3" font-family="Times,serif" font-size="14.00">link :character varying</text>
<text text-anchor="start" x="649" y="-38.3" font-family="Times,serif" font-size="14.00">summary_phase_id :integer</text>
<text text-anchor="start" x="649" y="-23.3" font-family="Times,serif" font-size="14.00">created_at :timestamp without time zone</text>
<text text-anchor="start" x="649" y="-8.3" font-family="Times,serif" font-size="14.00">updated_at :timestamp without time zone</text>
</g>
<!-- SummaryPhase&#45;&gt;Document -->
<g id="edge7" class="edge"><title>SummaryPhase&#45;&gt;Document</title>
<path fill="none" stroke="#cb1557" d="M763,-157.535C763,-149.031 763,-140.234 763,-131.577"/>
<ellipse fill="none" stroke="#cb1557" cx="763" cy="-161.62" rx="4" ry="4"/>
<polygon fill="#cb1557" stroke="#cb1557" points="763,-131.505 767.5,-121.505 763,-126.505 763,-121.505 763,-121.505 763,-121.505 763,-126.505 758.5,-121.505 763,-131.505 763,-131.505"/>
</g>
<!-- Ability -->
<g id="node6" class="node"><title>Ability</title>
<polygon fill="none" stroke="black" points="494.5,-1023 494.5,-1069 549.5,-1069 549.5,-1023 494.5,-1023"/>
<text text-anchor="middle" x="522" y="-1053.8" font-family="Times,serif" font-size="14.00">Ability</text>
<polyline fill="none" stroke="black" points="494.5,-1046 549.5,-1046 "/>
<text text-anchor="middle" x="522" y="-1030.8" font-family="Times,serif" font-size="14.00"> </text>
</g>
<!-- ApplicationRecord -->
<g id="node7" class="node"><title>ApplicationRecord</title>
<ellipse fill="none" stroke="black" cx="645" cy="-1046" rx="77.1866" ry="18"/>
<text text-anchor="middle" x="645" y="-1042.3" font-family="Times,serif" font-size="14.00">ApplicationRecord</text>
</g>
<!-- User&#45;&gt;SummaryUser -->
<g id="edge8" class="edge"><title>User&#45;&gt;SummaryUser</title>
<path fill="none" stroke="#85f845" d="M426.144,-308.739C429.134,-301.91 432.053,-295.244 434.862,-288.83"/>
<ellipse fill="none" stroke="#85f845" cx="424.482" cy="-312.535" rx="4.00002" ry="4.00002"/>
<polygon fill="#85f845" stroke="#85f845" points="434.882,-288.783 443.015,-281.428 436.887,-284.203 438.893,-279.623 438.893,-279.623 438.893,-279.623 436.887,-284.203 434.771,-277.818 434.882,-288.783 434.882,-288.783"/>
</g>
<!-- Phase&#45;&gt;SummaryPhase -->
<g id="edge9" class="edge"><title>Phase&#45;&gt;SummaryPhase</title>
<path fill="none" stroke="#4424a6" d="M704.372,-420.84C716.179,-380.394 732.513,-324.437 744.943,-281.858"/>
<ellipse fill="none" stroke="#4424a6" cx="703.18" cy="-424.923" rx="4.00001" ry="4.00001"/>
<polygon fill="#4424a6" stroke="#4424a6" points="744.97,-281.765 752.092,-273.426 746.371,-276.965 747.772,-272.165 747.772,-272.165 747.772,-272.165 746.371,-276.965 743.453,-270.904 744.97,-281.765 744.97,-281.765"/>
</g>
<!-- Establishment&#45;&gt;Department -->
<g id="edge10" class="edge"><title>Establishment&#45;&gt;Department</title>
<path fill="none" stroke="#dbaf4e" d="M354,-849.223C354,-835.893 354,-821.742 354,-808.332"/>
<ellipse fill="none" stroke="#dbaf4e" cx="354" cy="-853.318" rx="4" ry="4"/>
<polygon fill="#dbaf4e" stroke="#dbaf4e" points="354,-808.247 358.5,-798.247 354,-803.247 354,-798.247 354,-798.247 354,-798.247 354,-803.247 349.5,-798.247 354,-808.247 354,-808.247"/>
</g>
</g>
</svg>
