<?xml version="1.0" encoding="UTF-8" standalone="no"?>
<!DOCTYPE svg PUBLIC "-//W3C//DTD SVG 1.1//EN"
 "http://www.w3.org/Graphics/SVG/1.1/DTD/svg11.dtd">
<!-- Generated by graphviz version 2.38.0 (20140413.2041)
 -->
<!-- Title: models_diagram Pages: 1 -->
<svg width="502pt" height="446pt"
 viewBox="0.00 0.00 502.29 446.00" xmlns="http://www.w3.org/2000/svg" xmlns:xlink="http://www.w3.org/1999/xlink">
<g id="graph0" class="graph" transform="scale(1 1) rotate(0) translate(4 442)">
<title>models_diagram</title>
<polygon fill="none" stroke="none" points="-4,4 -4,-442 498.294,-442 498.294,4 -4,4"/>
<!-- _diagram_info -->
<g id="node1" class="node"><title>_diagram_info</title>
<text text-anchor="start" x="8" y="-423.6" font-family="Times,serif" font-size="13.00">Models diagram</text>
<text text-anchor="start" x="8" y="-409.6" font-family="Times,serif" font-size="13.00">Date: Mar 17 2017 &#45; 16:02</text>
<text text-anchor="start" x="8" y="-395.6" font-family="Times,serif" font-size="13.00">Migration version: 20170317185924</text>
<text text-anchor="start" x="8" y="-381.6" font-family="Times,serif" font-size="13.00">Generated by RailRoady 1.5.2</text>
<text text-anchor="start" x="8" y="-367.6" font-family="Times,serif" font-size="13.00">http://railroady.prestonlee.com</text>
</g>
<!-- Summary -->
<g id="node2" class="node"><title>Summary</title>
<ellipse fill="none" stroke="black" cx="376" cy="-234" rx="46.2923" ry="18"/>
<text text-anchor="middle" x="376" y="-230.3" font-family="Times,serif" font-size="14.00">Summary</text>
</g>
<!-- SummaryPhase -->
<g id="node5" class="node"><title>SummaryPhase</title>
<ellipse fill="none" stroke="black" cx="428" cy="-90" rx="66.0889" ry="18"/>
<text text-anchor="middle" x="428" y="-86.3" font-family="Times,serif" font-size="14.00">SummaryPhase</text>
</g>
<!-- Summary&#45;&gt;SummaryPhase -->
<g id="edge1" class="edge"><title>Summary&#45;&gt;SummaryPhase</title>
<path fill="none" stroke="#b0d602" d="M396.944,-210.602C404.125,-201.705 411.483,-190.981 416,-180 424.094,-160.325 426.968,-136.339 427.888,-118.227"/>
<ellipse fill="none" stroke="#b0d602" cx="394.364" cy="-213.673" rx="4.00002" ry="4.00002"/>
<polygon fill="#b0d602" stroke="#b0d602" points="427.894,-118.054 432.731,-108.212 428.064,-113.057 428.233,-108.06 428.233,-108.06 428.233,-108.06 428.064,-113.057 423.736,-107.907 427.894,-118.054 427.894,-118.054"/>
</g>
<!-- User -->
<g id="node8" class="node"><title>User</title>
<ellipse fill="none" stroke="black" cx="262" cy="-162" rx="27.0966" ry="18"/>
<text text-anchor="middle" x="262" y="-158.3" font-family="Times,serif" font-size="14.00">User</text>
</g>
<!-- Summary&#45;&gt;User -->
<g id="edge4" class="edge"><title>Summary&#45;&gt;User</title>
<path fill="none" stroke="#3e8596" d="M343.836,-213.25C326.877,-202.837 306.273,-190.185 289.982,-180.182"/>
<polygon fill="#3e8596" stroke="#3e8596" points="343.857,-213.263 350.024,-222.331 348.118,-215.88 352.379,-218.496 352.379,-218.496 352.379,-218.496 348.118,-215.88 354.734,-214.661 343.857,-213.263 343.857,-213.263"/>
<polygon fill="#3e8596" stroke="#3e8596" points="289.947,-180.161 283.78,-171.093 285.686,-177.544 281.425,-174.928 281.425,-174.928 281.425,-174.928 285.686,-177.544 279.071,-178.763 289.947,-180.161 289.947,-180.161"/>
</g>
<!-- Phase -->
<g id="node9" class="node"><title>Phase</title>
<ellipse fill="none" stroke="black" cx="376" cy="-162" rx="31.3957" ry="18"/>
<text text-anchor="middle" x="376" y="-158.3" font-family="Times,serif" font-size="14.00">Phase</text>
</g>
<!-- Summary&#45;&gt;Phase -->
<g id="edge2" class="edge"><title>Summary&#45;&gt;Phase</title>
<path fill="none" stroke="#1be136" d="M376,-205.665C376,-200.687 376,-195.491 376,-190.507"/>
<polygon fill="#1be136" stroke="#1be136" points="376,-205.697 371.5,-215.697 376,-210.697 376,-215.697 376,-215.697 376,-215.697 376,-210.697 380.5,-215.697 376,-205.697 376,-205.697"/>
<polygon fill="#1be136" stroke="#1be136" points="376,-190.104 380.5,-180.104 376,-185.104 376,-180.104 376,-180.104 376,-180.104 376,-185.104 371.5,-180.104 376,-190.104 376,-190.104"/>
</g>
<!-- SummaryUser -->
<g id="node10" class="node"><title>SummaryUser</title>
<ellipse fill="none" stroke="black" cx="275" cy="-90" rx="62.2891" ry="18"/>
<text text-anchor="middle" x="275" y="-86.3" font-family="Times,serif" font-size="14.00">SummaryUser</text>
</g>
<!-- Summary&#45;&gt;SummaryUser -->
<g id="edge3" class="edge"><title>Summary&#45;&gt;SummaryUser</title>
<path fill="none" stroke="#62cfce" d="M358.288,-210.009C351.254,-200.755 343.151,-189.939 336,-180 320.814,-158.894 304.163,-134.511 292.1,-116.609"/>
<ellipse fill="none" stroke="#62cfce" cx="360.766" cy="-213.256" rx="4.00002" ry="4.00002"/>
<polygon fill="#62cfce" stroke="#62cfce" points="291.819,-116.191 289.977,-105.38 289.03,-112.04 286.242,-107.89 286.242,-107.89 286.242,-107.89 289.03,-112.04 282.507,-110.4 291.819,-116.191 291.819,-116.191"/>
</g>
<!-- Department -->
<g id="node3" class="node"><title>Department</title>
<ellipse fill="none" stroke="black" cx="259" cy="-234" rx="52.7911" ry="18"/>
<text text-anchor="middle" x="259" y="-230.3" font-family="Times,serif" font-size="14.00">Department</text>
</g>
<!-- Department&#45;&gt;User -->
<g id="edge5" class="edge"><title>Department&#45;&gt;User</title>
<path fill="none" stroke="#58f999" d="M260.087,-207.64C260.326,-202.063 260.58,-196.132 260.822,-190.476"/>
<ellipse fill="none" stroke="#58f999" cx="259.913" cy="-211.7" rx="4" ry="4"/>
<polygon fill="#58f999" stroke="#58f999" points="260.839,-190.095 265.763,-180.297 261.053,-185.1 261.267,-180.104 261.267,-180.104 261.267,-180.104 261.053,-185.1 256.771,-179.912 260.839,-190.095 260.839,-190.095"/>
</g>
<!-- City -->
<g id="node4" class="node"><title>City</title>
<ellipse fill="none" stroke="black" cx="259" cy="-399" rx="27" ry="18"/>
<text text-anchor="middle" x="259" y="-395.3" font-family="Times,serif" font-size="14.00">City</text>
</g>
<!-- Establishment -->
<g id="node11" class="node"><title>Establishment</title>
<ellipse fill="none" stroke="black" cx="259" cy="-306" rx="61.1893" ry="18"/>
<text text-anchor="middle" x="259" y="-302.3" font-family="Times,serif" font-size="14.00">Establishment</text>
</g>
<!-- City&#45;&gt;Establishment -->
<g id="edge6" class="edge"><title>City&#45;&gt;Establishment</title>
<path fill="none" stroke="#dcb748" d="M259,-372.729C259,-360.725 259,-346.362 259,-334.129"/>
<ellipse fill="none" stroke="#dcb748" cx="259" cy="-376.884" rx="4" ry="4"/>
<polygon fill="#dcb748" stroke="#dcb748" points="259,-334.04 263.5,-324.04 259,-329.04 259,-324.04 259,-324.04 259,-324.04 259,-329.04 254.5,-324.04 259,-334.04 259,-334.04"/>
</g>
<!-- Document -->
<g id="node7" class="node"><title>Document</title>
<ellipse fill="none" stroke="black" cx="428" cy="-18" rx="48.1917" ry="18"/>
<text text-anchor="middle" x="428" y="-14.3" font-family="Times,serif" font-size="14.00">Document</text>
</g>
<!-- SummaryPhase&#45;&gt;Document -->
<g id="edge7" class="edge"><title>SummaryPhase&#45;&gt;Document</title>
<path fill="none" stroke="#d4d46d" d="M428,-63.6398C428,-58.0629 428,-52.1319 428,-46.4761"/>
<ellipse fill="none" stroke="#d4d46d" cx="428" cy="-67.6966" rx="4" ry="4"/>
<polygon fill="#d4d46d" stroke="#d4d46d" points="428,-46.1043 432.5,-36.1043 428,-41.1043 428,-36.1043 428,-36.1043 428,-36.1043 428,-41.1043 423.5,-36.1044 428,-46.1043 428,-46.1043"/>
</g>
<!-- ApplicationRecord -->
<g id="node6" class="node"><title>ApplicationRecord</title>
<ellipse fill="none" stroke="black" cx="381" cy="-399" rx="77.1866" ry="18"/>
<text text-anchor="middle" x="381" y="-395.3" font-family="Times,serif" font-size="14.00">ApplicationRecord</text>
</g>
<!-- User&#45;&gt;SummaryUser -->
<g id="edge8" class="edge"><title>User&#45;&gt;SummaryUser</title>
<path fill="none" stroke="#9fd2de" d="M266.645,-135.987C267.711,-130.249 268.849,-124.121 269.931,-118.293"/>
<ellipse fill="none" stroke="#9fd2de" cx="265.877" cy="-140.122" rx="4.00001" ry="4.00001"/>
<polygon fill="#9fd2de" stroke="#9fd2de" points="269.966,-118.107 276.216,-109.097 270.879,-113.191 271.792,-108.275 271.792,-108.275 271.792,-108.275 270.879,-113.191 267.367,-107.454 269.966,-118.107 269.966,-118.107"/>
</g>
<!-- Phase&#45;&gt;SummaryPhase -->
<g id="edge9" class="edge"><title>Phase&#45;&gt;SummaryPhase</title>
<path fill="none" stroke="#6cf625" d="M392.708,-138.509C398.033,-131.341 403.956,-123.367 409.406,-116.03"/>
<ellipse fill="none" stroke="#6cf625" cx="390.185" cy="-141.905" rx="4.00002" ry="4.00002"/>
<polygon fill="#6cf625" stroke="#6cf625" points="409.559,-115.825 419.134,-110.481 412.54,-111.811 415.522,-107.797 415.522,-107.797 415.522,-107.797 412.54,-111.811 411.91,-105.114 409.559,-115.825 409.559,-115.825"/>
</g>
<!-- Establishment&#45;&gt;Department -->
<g id="edge10" class="edge"><title>Establishment&#45;&gt;Department</title>
<path fill="none" stroke="#ea01bf" d="M259,-279.64C259,-274.063 259,-268.132 259,-262.476"/>
<ellipse fill="none" stroke="#ea01bf" cx="259" cy="-283.697" rx="4" ry="4"/>
<polygon fill="#ea01bf" stroke="#ea01bf" points="259,-262.104 263.5,-252.104 259,-257.104 259,-252.104 259,-252.104 259,-252.104 259,-257.104 254.5,-252.104 259,-262.104 259,-262.104"/>
</g>
</g>
</svg>
