<?xml version="1.0" encoding="UTF-8" standalone="no"?>
<!DOCTYPE svg PUBLIC "-//W3C//DTD SVG 1.1//EN"
 "http://www.w3.org/Graphics/SVG/1.1/DTD/svg11.dtd">
<!-- Generated by graphviz version 2.38.0 (20140413.2041)
 -->
<!-- Title: models_diagram Pages: 1 -->
<svg width="893pt" height="1085pt"
 viewBox="0.00 0.00 893.00 1085.00" xmlns="http://www.w3.org/2000/svg" xmlns:xlink="http://www.w3.org/1999/xlink">
<g id="graph0" class="graph" transform="scale(1 1) rotate(0) translate(4 1081)">
<title>models_diagram</title>
<polygon fill="none" stroke="none" points="-4,4 -4,-1081 889,-1081 889,4 -4,4"/>
<!-- _diagram_info -->
<g id="node1" class="node"><title>_diagram_info</title>
<text text-anchor="start" x="8" y="-1055.6" font-family="Times,serif" font-size="13.00">Models diagram</text>
<text text-anchor="start" x="8" y="-1041.6" font-family="Times,serif" font-size="13.00">Date: Mar 17 2017 &#45; 16:02</text>
<text text-anchor="start" x="8" y="-1027.6" font-family="Times,serif" font-size="13.00">Migration version: 20170317185924</text>
<text text-anchor="start" x="8" y="-1013.6" font-family="Times,serif" font-size="13.00">Generated by RailRoady 1.5.2</text>
<text text-anchor="start" x="8" y="-999.6" font-family="Times,serif" font-size="13.00">http://railroady.prestonlee.com</text>
</g>
<!-- Summary -->
<g id="node2" class="node"><title>Summary</title>
<path fill="none" stroke="black" d="M540.5,-639.5C540.5,-639.5 767.5,-639.5 767.5,-639.5 773.5,-639.5 779.5,-645.5 779.5,-651.5 779.5,-651.5 779.5,-793.5 779.5,-793.5 779.5,-799.5 773.5,-805.5 767.5,-805.5 767.5,-805.5 540.5,-805.5 540.5,-805.5 534.5,-805.5 528.5,-799.5 528.5,-793.5 528.5,-793.5 528.5,-651.5 528.5,-651.5 528.5,-645.5 534.5,-639.5 540.5,-639.5"/>
<text text-anchor="middle" x="654" y="-790.3" font-family="Times,serif" font-size="14.00">Summary</text>
<polyline fill="none" stroke="black" points="528.5,-782.5 779.5,-782.5 "/>
<text text-anchor="start" x="536.5" y="-767.3" font-family="Times,serif" font-size="14.00">id :integer</text>
<text text-anchor="start" x="536.5" y="-752.3" font-family="Times,serif" font-size="14.00">description :character varying</text>
<text text-anchor="start" x="536.5" y="-737.3" font-family="Times,serif" font-size="14.00">note :text</text>
<text text-anchor="start" x="536.5" y="-722.3" font-family="Times,serif" font-size="14.00">resolution :integer</text>
<text text-anchor="start" x="536.5" y="-707.3" font-family="Times,serif" font-size="14.00">type :integer</text>
<text text-anchor="start" x="536.5" y="-692.3" font-family="Times,serif" font-size="14.00">starting_day :timestamp without time zone</text>
<text text-anchor="start" x="536.5" y="-677.3" font-family="Times,serif" font-size="14.00">close_day :timestamp without time zone</text>
<text text-anchor="start" x="536.5" y="-662.3" font-family="Times,serif" font-size="14.00">created_at :timestamp without time zone</text>
<text text-anchor="start" x="536.5" y="-647.3" font-family="Times,serif" font-size="14.00">updated_at :timestamp without time zone</text>
</g>
<!-- SummaryPhase -->
<g id="node5" class="node"><title>SummaryPhase</title>
<path fill="none" stroke="black" d="M653,-158.5C653,-158.5 873,-158.5 873,-158.5 879,-158.5 885,-164.5 885,-170.5 885,-170.5 885,-252.5 885,-252.5 885,-258.5 879,-264.5 873,-264.5 873,-264.5 653,-264.5 653,-264.5 647,-264.5 641,-258.5 641,-252.5 641,-252.5 641,-170.5 641,-170.5 641,-164.5 647,-158.5 653,-158.5"/>
<text text-anchor="middle" x="763" y="-249.3" font-family="Times,serif" font-size="14.00">SummaryPhase</text>
<polyline fill="none" stroke="black" points="641,-241.5 885,-241.5 "/>
<text text-anchor="start" x="649" y="-226.3" font-family="Times,serif" font-size="14.00">id :integer</text>
<text text-anchor="start" x="649" y="-211.3" font-family="Times,serif" font-size="14.00">summary_id :integer</text>
<text text-anchor="start" x="649" y="-196.3" font-family="Times,serif" font-size="14.00">phase_id :integer</text>
<text text-anchor="start" x="649" y="-181.3" font-family="Times,serif" font-size="14.00">created_at :timestamp without time zone</text>
<text text-anchor="start" x="649" y="-166.3" font-family="Times,serif" font-size="14.00">updated_at :timestamp without time zone</text>
</g>
<!-- Summary&#45;&gt;SummaryPhase -->
<g id="edge1" class="edge"><title>Summary&#45;&gt;SummaryPhase</title>
<path fill="none" stroke="#80351e" d="M785.789,-647.24C799.491,-634.261 811.491,-619.528 820,-603 881.435,-483.663 857.879,-429.766 820,-301 817.282,-291.761 813.268,-282.576 808.607,-273.814"/>
<ellipse fill="none" stroke="#80351e" cx="782.771" cy="-649.997" rx="4.00002" ry="4.00002"/>
<polygon fill="#80351e" stroke="#80351e" points="808.462,-273.557 807.459,-262.637 806.002,-269.204 803.542,-264.851 803.542,-264.851 803.542,-264.851 806.002,-269.204 799.624,-267.065 808.462,-273.557 808.462,-273.557"/>
</g>
<!-- User -->
<g id="node8" class="node"><title>User</title>
<path fill="none" stroke="black" d="M209.5,-301.5C209.5,-301.5 498.5,-301.5 498.5,-301.5 504.5,-301.5 510.5,-307.5 510.5,-313.5 510.5,-313.5 510.5,-590.5 510.5,-590.5 510.5,-596.5 504.5,-602.5 498.5,-602.5 498.5,-602.5 209.5,-602.5 209.5,-602.5 203.5,-602.5 197.5,-596.5 197.5,-590.5 197.5,-590.5 197.5,-313.5 197.5,-313.5 197.5,-307.5 203.5,-301.5 209.5,-301.5"/>
<text text-anchor="middle" x="354" y="-587.3" font-family="Times,serif" font-size="14.00">User</text>
<polyline fill="none" stroke="black" points="197.5,-579.5 510.5,-579.5 "/>
<text text-anchor="start" x="205.5" y="-564.3" font-family="Times,serif" font-size="14.00">id :integer</text>
<text text-anchor="start" x="205.5" y="-549.3" font-family="Times,serif" font-size="14.00">email :character varying</text>
<text text-anchor="start" x="205.5" y="-534.3" font-family="Times,serif" font-size="14.00">encrypted_password :character varying</text>
<text text-anchor="start" x="205.5" y="-519.3" font-family="Times,serif" font-size="14.00">reset_password_token :character varying</text>
<text text-anchor="start" x="205.5" y="-504.3" font-family="Times,serif" font-size="14.00">reset_password_sent_at :timestamp without time zone</text>
<text text-anchor="start" x="205.5" y="-489.3" font-family="Times,serif" font-size="14.00">remember_created_at :timestamp without time zone</text>
<text text-anchor="start" x="205.5" y="-474.3" font-family="Times,serif" font-size="14.00">sign_in_count :integer</text>
<text text-anchor="start" x="205.5" y="-459.3" font-family="Times,serif" font-size="14.00">current_sign_in_at :timestamp without time zone</text>
<text text-anchor="start" x="205.5" y="-444.3" font-family="Times,serif" font-size="14.00">last_sign_in_at :timestamp without time zone</text>
<text text-anchor="start" x="205.5" y="-429.3" font-family="Times,serif" font-size="14.00">current_sign_in_ip :inet</text>
<text text-anchor="start" x="205.5" y="-414.3" font-family="Times,serif" font-size="14.00">last_sign_in_ip :inet</text>
<text text-anchor="start" x="205.5" y="-399.3" font-family="Times,serif" font-size="14.00">name :character varying</text>
<text text-anchor="start" x="205.5" y="-384.3" font-family="Times,serif" font-size="14.00">sure_name :character varying</text>
<text text-anchor="start" x="205.5" y="-369.3" font-family="Times,serif" font-size="14.00">last_name :character varying</text>
<text text-anchor="start" x="205.5" y="-354.3" font-family="Times,serif" font-size="14.00">rut :character varying</text>
<text text-anchor="start" x="205.5" y="-339.3" font-family="Times,serif" font-size="14.00">department_id :integer</text>
<text text-anchor="start" x="205.5" y="-324.3" font-family="Times,serif" font-size="14.00">created_at :timestamp without time zone</text>
<text text-anchor="start" x="205.5" y="-309.3" font-family="Times,serif" font-size="14.00">updated_at :timestamp without time zone</text>
</g>
<!-- Summary&#45;&gt;User -->
<g id="edge4" class="edge"><title>Summary&#45;&gt;User</title>
<path fill="none" stroke="#d7aeb4" d="M554.569,-632.509C542.845,-622.016 530.654,-611.106 518.333,-600.078"/>
<polygon fill="#d7aeb4" stroke="#d7aeb4" points="554.909,-632.813 559.359,-642.835 558.634,-636.148 562.36,-639.482 562.36,-639.482 562.36,-639.482 558.634,-636.148 565.361,-636.129 554.909,-632.813 554.909,-632.813"/>
<polygon fill="#d7aeb4" stroke="#d7aeb4" points="518.1,-599.869 513.649,-589.847 514.374,-596.535 510.648,-593.2 510.648,-593.2 510.648,-593.2 514.374,-596.535 507.647,-596.553 518.1,-599.869 518.1,-599.869"/>
</g>
<!-- Phase -->
<g id="node9" class="node"><title>Phase</title>
<path fill="none" stroke="black" d="M579,-406.5C579,-406.5 799,-406.5 799,-406.5 805,-406.5 811,-412.5 811,-418.5 811,-418.5 811,-485.5 811,-485.5 811,-491.5 805,-497.5 799,-497.5 799,-497.5 579,-497.5 579,-497.5 573,-497.5 567,-491.5 567,-485.5 567,-485.5 567,-418.5 567,-418.5 567,-412.5 573,-406.5 579,-406.5"/>
<text text-anchor="middle" x="689" y="-482.3" font-family="Times,serif" font-size="14.00">Phase</text>
<polyline fill="none" stroke="black" points="567,-474.5 811,-474.5 "/>
<text text-anchor="start" x="575" y="-459.3" font-family="Times,serif" font-size="14.00">id :integer</text>
<text text-anchor="start" x="575" y="-444.3" font-family="Times,serif" font-size="14.00">name :character varying</text>
<text text-anchor="start" x="575" y="-429.3" font-family="Times,serif" font-size="14.00">created_at :timestamp without time zone</text>
<text text-anchor="start" x="575" y="-414.3" font-family="Times,serif" font-size="14.00">updated_at :timestamp without time zone</text>
</g>
<!-- Summary&#45;&gt;Phase -->
<g id="edge2" class="edge"><title>Summary&#45;&gt;Phase</title>
<path fill="none" stroke="#faf943" d="M665.99,-629.52C671.266,-589.045 677.286,-542.861 681.845,-507.888"/>
<polygon fill="#faf943" stroke="#faf943" points="665.984,-629.566 660.229,-638.9 665.338,-634.524 664.691,-639.482 664.691,-639.482 664.691,-639.482 665.338,-634.524 669.154,-640.064 665.984,-629.566 665.984,-629.566"/>
<polygon fill="#faf943" stroke="#faf943" points="681.858,-507.791 687.613,-498.456 682.504,-502.833 683.15,-497.875 683.15,-497.875 683.15,-497.875 682.504,-502.833 678.688,-497.293 681.858,-507.791 681.858,-507.791"/>
</g>
<!-- SummaryUser -->
<g id="node10" class="node"><title>SummaryUser</title>
<path fill="none" stroke="black" d="M355,-158.5C355,-158.5 575,-158.5 575,-158.5 581,-158.5 587,-164.5 587,-170.5 587,-170.5 587,-252.5 587,-252.5 587,-258.5 581,-264.5 575,-264.5 575,-264.5 355,-264.5 355,-264.5 349,-264.5 343,-258.5 343,-252.5 343,-252.5 343,-170.5 343,-170.5 343,-164.5 349,-158.5 355,-158.5"/>
<text text-anchor="middle" x="465" y="-249.3" font-family="Times,serif" font-size="14.00">SummaryUser</text>
<polyline fill="none" stroke="black" points="343,-241.5 587,-241.5 "/>
<text text-anchor="start" x="351" y="-226.3" font-family="Times,serif" font-size="14.00">id :integer</text>
<text text-anchor="start" x="351" y="-211.3" font-family="Times,serif" font-size="14.00">summary_id :integer</text>
<text text-anchor="start" x="351" y="-196.3" font-family="Times,serif" font-size="14.00">user_id :integer</text>
<text text-anchor="start" x="351" y="-181.3" font-family="Times,serif" font-size="14.00">created_at :timestamp without time zone</text>
<text text-anchor="start" x="351" y="-166.3" font-family="Times,serif" font-size="14.00">updated_at :timestamp without time zone</text>
</g>
<!-- Summary&#45;&gt;SummaryUser -->
<g id="edge3" class="edge"><title>Summary&#45;&gt;SummaryUser</title>
<path fill="none" stroke="#5c10c3" d="M573.801,-632.58C567.729,-623.024 562.303,-613.093 558,-603 504.942,-478.558 565.193,-428.509 520,-301 516.737,-291.793 512.403,-282.532 507.595,-273.65"/>
<ellipse fill="none" stroke="#5c10c3" cx="576.133" cy="-636.127" rx="4.00002" ry="4.00002"/>
<polygon fill="#5c10c3" stroke="#5c10c3" points="507.575,-273.614 506.569,-262.695 505.114,-269.262 502.652,-264.91 502.652,-264.91 502.652,-264.91 505.114,-269.262 498.735,-267.126 507.575,-273.614 507.575,-273.614"/>
</g>
<!-- Department -->
<g id="node3" class="node"><title>Department</title>
<path fill="none" stroke="black" d="M244,-669.5C244,-669.5 464,-669.5 464,-669.5 470,-669.5 476,-675.5 476,-681.5 476,-681.5 476,-763.5 476,-763.5 476,-769.5 470,-775.5 464,-775.5 464,-775.5 244,-775.5 244,-775.5 238,-775.5 232,-769.5 232,-763.5 232,-763.5 232,-681.5 232,-681.5 232,-675.5 238,-669.5 244,-669.5"/>
<text text-anchor="middle" x="354" y="-760.3" font-family="Times,serif" font-size="14.00">Department</text>
<polyline fill="none" stroke="black" points="232,-752.5 476,-752.5 "/>
<text text-anchor="start" x="240" y="-737.3" font-family="Times,serif" font-size="14.00">id :integer</text>
<text text-anchor="start" x="240" y="-722.3" font-family="Times,serif" font-size="14.00">name :character varying</text>
<text text-anchor="start" x="240" y="-707.3" font-family="Times,serif" font-size="14.00">establishment_id :integer</text>
<text text-anchor="start" x="240" y="-692.3" font-family="Times,serif" font-size="14.00">created_at :timestamp without time zone</text>
<text text-anchor="start" x="240" y="-677.3" font-family="Times,serif" font-size="14.00">updated_at :timestamp without time zone</text>
</g>
<!-- Department&#45;&gt;User -->
<g id="edge5" class="edge"><title>Department&#45;&gt;User</title>
<path fill="none" stroke="#aaedf3" d="M354,-660.962C354,-646.222 354,-629.764 354,-612.739"/>
<ellipse fill="none" stroke="#aaedf3" cx="354" cy="-665.412" rx="4" ry="4"/>
<polygon fill="#aaedf3" stroke="#aaedf3" points="354,-612.657 358.5,-602.657 354,-607.657 354,-602.657 354,-602.657 354,-602.657 354,-607.657 349.5,-602.657 354,-612.657 354,-612.657"/>
</g>
<!-- City -->
<g id="node4" class="node"><title>City</title>
<path fill="none" stroke="black" d="M244,-985.5C244,-985.5 464,-985.5 464,-985.5 470,-985.5 476,-991.5 476,-997.5 476,-997.5 476,-1064.5 476,-1064.5 476,-1070.5 470,-1076.5 464,-1076.5 464,-1076.5 244,-1076.5 244,-1076.5 238,-1076.5 232,-1070.5 232,-1064.5 232,-1064.5 232,-997.5 232,-997.5 232,-991.5 238,-985.5 244,-985.5"/>
<text text-anchor="middle" x="354" y="-1061.3" font-family="Times,serif" font-size="14.00">City</text>
<polyline fill="none" stroke="black" points="232,-1053.5 476,-1053.5 "/>
<text text-anchor="start" x="240" y="-1038.3" font-family="Times,serif" font-size="14.00">id :integer</text>
<text text-anchor="start" x="240" y="-1023.3" font-family="Times,serif" font-size="14.00">name :character varying</text>
<text text-anchor="start" x="240" y="-1008.3" font-family="Times,serif" font-size="14.00">created_at :timestamp without time zone</text>
<text text-anchor="start" x="240" y="-993.3" font-family="Times,serif" font-size="14.00">updated_at :timestamp without time zone</text>
</g>
<!-- Establishment -->
<g id="node11" class="node"><title>Establishment</title>
<path fill="none" stroke="black" d="M244,-842.5C244,-842.5 464,-842.5 464,-842.5 470,-842.5 476,-848.5 476,-854.5 476,-854.5 476,-936.5 476,-936.5 476,-942.5 470,-948.5 464,-948.5 464,-948.5 244,-948.5 244,-948.5 238,-948.5 232,-942.5 232,-936.5 232,-936.5 232,-854.5 232,-854.5 232,-848.5 238,-842.5 244,-842.5"/>
<text text-anchor="middle" x="354" y="-933.3" font-family="Times,serif" font-size="14.00">Establishment</text>
<polyline fill="none" stroke="black" points="232,-925.5 476,-925.5 "/>
<text text-anchor="start" x="240" y="-910.3" font-family="Times,serif" font-size="14.00">id :integer</text>
<text text-anchor="start" x="240" y="-895.3" font-family="Times,serif" font-size="14.00">name :character varying</text>
<text text-anchor="start" x="240" y="-880.3" font-family="Times,serif" font-size="14.00">city_id :integer</text>
<text text-anchor="start" x="240" y="-865.3" font-family="Times,serif" font-size="14.00">created_at :timestamp without time zone</text>
<text text-anchor="start" x="240" y="-850.3" font-family="Times,serif" font-size="14.00">updated_at :timestamp without time zone</text>
</g>
<!-- City&#45;&gt;Establishment -->
<g id="edge6" class="edge"><title>City&#45;&gt;Establishment</title>
<path fill="none" stroke="#779613" d="M354,-977.111C354,-971.148 354,-965.03 354,-958.96"/>
<ellipse fill="none" stroke="#779613" cx="354" cy="-981.175" rx="4" ry="4"/>
<polygon fill="#779613" stroke="#779613" points="354,-958.824 358.5,-948.824 354,-953.824 354,-948.824 354,-948.824 354,-948.824 354,-953.824 349.5,-948.824 354,-958.824 354,-958.824"/>
</g>
<!-- Document -->
<g id="node7" class="node"><title>Document</title>
<path fill="none" stroke="black" d="M653,-0.5C653,-0.5 873,-0.5 873,-0.5 879,-0.5 885,-6.5 885,-12.5 885,-12.5 885,-109.5 885,-109.5 885,-115.5 879,-121.5 873,-121.5 873,-121.5 653,-121.5 653,-121.5 647,-121.5 641,-115.5 641,-109.5 641,-109.5 641,-12.5 641,-12.5 641,-6.5 647,-0.5 653,-0.5"/>
<text text-anchor="middle" x="763" y="-106.3" font-family="Times,serif" font-size="14.00">Document</text>
<polyline fill="none" stroke="black" points="641,-98.5 885,-98.5 "/>
<text text-anchor="start" x="649" y="-83.3" font-family="Times,serif" font-size="14.00">id :integer</text>
<text text-anchor="start" x="649" y="-68.3" font-family="Times,serif" font-size="14.00">name :character varying</text>
<text text-anchor="start" x="649" y="-53.3" font-family="Times,serif" font-size="14.00">link :character varying</text>
<text text-anchor="start" x="649" y="-38.3" font-family="Times,serif" font-size="14.00">summary_phase_id :integer</text>
<text text-anchor="start" x="649" y="-23.3" font-family="Times,serif" font-size="14.00">created_at :timestamp without time zone</text>
<text text-anchor="start" x="649" y="-8.3" font-family="Times,serif" font-size="14.00">updated_at :timestamp without time zone</text>
</g>
<!-- SummaryPhase&#45;&gt;Document -->
<g id="edge7" class="edge"><title>SummaryPhase&#45;&gt;Document</title>
<path fill="none" stroke="#11eba7" d="M763,-150.033C763,-144.052 763,-137.948 763,-131.882"/>
<ellipse fill="none" stroke="#11eba7" cx="763" cy="-154.144" rx="4" ry="4"/>
<polygon fill="#11eba7" stroke="#11eba7" points="763,-131.74 767.5,-121.739 763,-126.74 763,-121.74 763,-121.74 763,-121.74 763,-126.74 758.5,-121.74 763,-131.74 763,-131.74"/>
</g>
<!-- ApplicationRecord -->
<g id="node6" class="node"><title>ApplicationRecord</title>
<ellipse fill="none" stroke="black" cx="571" cy="-1031" rx="77.1866" ry="18"/>
<text text-anchor="middle" x="571" y="-1027.3" font-family="Times,serif" font-size="14.00">ApplicationRecord</text>
</g>
<!-- User&#45;&gt;SummaryUser -->
<g id="edge8" class="edge"><title>User&#45;&gt;SummaryUser</title>
<path fill="none" stroke="#41f101" d="M427.16,-293.804C430.354,-286.943 433.46,-280.269 436.43,-273.887"/>
<ellipse fill="none" stroke="#41f101" cx="425.356" cy="-297.682" rx="4.00002" ry="4.00002"/>
<polygon fill="#41f101" stroke="#41f101" points="436.46,-273.823 444.759,-266.656 438.569,-269.29 440.679,-264.757 440.679,-264.757 440.679,-264.757 438.569,-269.29 436.599,-262.858 436.46,-273.823 436.46,-273.823"/>
</g>
<!-- Phase&#45;&gt;SummaryPhase -->
<g id="edge9" class="edge"><title>Phase&#45;&gt;SummaryPhase</title>
<path fill="none" stroke="#1a7de0" d="M705.236,-398.673C716.606,-362.025 731.847,-312.907 743.818,-274.324"/>
<ellipse fill="none" stroke="#1a7de0" cx="704.017" cy="-402.599" rx="4.00001" ry="4.00001"/>
<polygon fill="#1a7de0" stroke="#1a7de0" points="743.823,-274.307 751.084,-266.089 745.305,-269.531 746.786,-264.756 746.786,-264.756 746.786,-264.756 745.305,-269.531 742.489,-263.422 743.823,-274.307 743.823,-274.307"/>
</g>
<!-- Establishment&#45;&gt;Department -->
<g id="edge10" class="edge"><title>Establishment&#45;&gt;Department</title>
<path fill="none" stroke="#b31b18" d="M354,-834.209C354,-818.548 354,-801.648 354,-785.882"/>
<ellipse fill="none" stroke="#b31b18" cx="354" cy="-838.265" rx="4" ry="4"/>
<polygon fill="#b31b18" stroke="#b31b18" points="354,-785.709 358.5,-775.709 354,-780.709 354,-775.709 354,-775.709 354,-775.709 354,-780.709 349.5,-775.709 354,-785.709 354,-785.709"/>
</g>
</g>
</svg>
