<?xml version="1.0" encoding="UTF-8" standalone="no"?>
<!DOCTYPE svg PUBLIC "-//W3C//DTD SVG 1.1//EN"
 "http://www.w3.org/Graphics/SVG/1.1/DTD/svg11.dtd">
<!-- Generated by graphviz version 2.38.0 (20140413.2041)
 -->
<!-- Title: models_diagram Pages: 1 -->
<svg width="799pt" height="927pt"
 viewBox="0.00 0.00 799.34 927.00" xmlns="http://www.w3.org/2000/svg" xmlns:xlink="http://www.w3.org/1999/xlink">
<g id="graph0" class="graph" transform="scale(1 1) rotate(0) translate(4 923)">
<title>models_diagram</title>
<polygon fill="none" stroke="none" points="-4,4 -4,-923 795.343,-923 795.343,4 -4,4"/>
<!-- _diagram_info -->
<g id="node1" class="node"><title>_diagram_info</title>
<text text-anchor="start" x="151" y="-897.6" font-family="Times,serif" font-size="13.00">Models diagram</text>
<text text-anchor="start" x="151" y="-883.6" font-family="Times,serif" font-size="13.00">Date: Mar 17 2017 &#45; 21:27</text>
<text text-anchor="start" x="151" y="-869.6" font-family="Times,serif" font-size="13.00">Migration version: 20170318002423</text>
<text text-anchor="start" x="151" y="-855.6" font-family="Times,serif" font-size="13.00">Generated by RailRoady 1.5.2</text>
<text text-anchor="start" x="151" y="-841.6" font-family="Times,serif" font-size="13.00">http://railroady.prestonlee.com</text>
</g>
<!-- Summary -->
<g id="node2" class="node"><title>Summary</title>
<path fill="none" stroke="black" d="M117.5,-496.5C117.5,-496.5 344.5,-496.5 344.5,-496.5 350.5,-496.5 356.5,-502.5 356.5,-508.5 356.5,-508.5 356.5,-635.5 356.5,-635.5 356.5,-641.5 350.5,-647.5 344.5,-647.5 344.5,-647.5 117.5,-647.5 117.5,-647.5 111.5,-647.5 105.5,-641.5 105.5,-635.5 105.5,-635.5 105.5,-508.5 105.5,-508.5 105.5,-502.5 111.5,-496.5 117.5,-496.5"/>
<text text-anchor="middle" x="231" y="-632.3" font-family="Times,serif" font-size="14.00">Summary</text>
<polyline fill="none" stroke="black" points="105.5,-624.5 356.5,-624.5 "/>
<text text-anchor="start" x="113.5" y="-609.3" font-family="Times,serif" font-size="14.00">id :integer</text>
<text text-anchor="start" x="113.5" y="-594.3" font-family="Times,serif" font-size="14.00">description :character varying</text>
<text text-anchor="start" x="113.5" y="-579.3" font-family="Times,serif" font-size="14.00">note :text</text>
<text text-anchor="start" x="113.5" y="-564.3" font-family="Times,serif" font-size="14.00">resolution :integer</text>
<text text-anchor="start" x="113.5" y="-549.3" font-family="Times,serif" font-size="14.00">starting_day :timestamp without time zone</text>
<text text-anchor="start" x="113.5" y="-534.3" font-family="Times,serif" font-size="14.00">close_day :timestamp without time zone</text>
<text text-anchor="start" x="113.5" y="-519.3" font-family="Times,serif" font-size="14.00">created_at :timestamp without time zone</text>
<text text-anchor="start" x="113.5" y="-504.3" font-family="Times,serif" font-size="14.00">updated_at :timestamp without time zone</text>
</g>
<!-- SummaryPhase -->
<g id="node5" class="node"><title>SummaryPhase</title>
<path fill="none" stroke="black" d="M12,-263.5C12,-263.5 232,-263.5 232,-263.5 238,-263.5 244,-269.5 244,-275.5 244,-275.5 244,-342.5 244,-342.5 244,-348.5 238,-354.5 232,-354.5 232,-354.5 12,-354.5 12,-354.5 6,-354.5 0,-348.5 0,-342.5 0,-342.5 0,-275.5 0,-275.5 0,-269.5 6,-263.5 12,-263.5"/>
<text text-anchor="middle" x="122" y="-339.3" font-family="Times,serif" font-size="14.00">SummaryPhase</text>
<polyline fill="none" stroke="black" points="0,-331.5 244,-331.5 "/>
<text text-anchor="start" x="8" y="-316.3" font-family="Times,serif" font-size="14.00">id :integer</text>
<text text-anchor="start" x="8" y="-301.3" font-family="Times,serif" font-size="14.00">summary_id :integer</text>
<text text-anchor="start" x="8" y="-286.3" font-family="Times,serif" font-size="14.00">created_at :timestamp without time zone</text>
<text text-anchor="start" x="8" y="-271.3" font-family="Times,serif" font-size="14.00">updated_at :timestamp without time zone</text>
</g>
<!-- Summary&#45;&gt;SummaryPhase -->
<g id="edge1" class="edge"><title>Summary&#45;&gt;SummaryPhase</title>
<path fill="none" stroke="#de6ec1" d="M196.587,-488.599C179.577,-447.868 159.532,-399.87 144.508,-363.895"/>
<ellipse fill="none" stroke="#de6ec1" cx="198.223" cy="-492.517" rx="4.00001" ry="4.00001"/>
<polygon fill="#de6ec1" stroke="#de6ec1" points="144.46,-363.78 144.759,-352.818 142.533,-359.166 140.606,-354.552 140.606,-354.552 140.606,-354.552 142.533,-359.166 136.454,-356.287 144.46,-363.78 144.46,-363.78"/>
</g>
<!-- User -->
<g id="node8" class="node"><title>User</title>
<path fill="none" stroke="black" d="M312.5,-158.5C312.5,-158.5 601.5,-158.5 601.5,-158.5 607.5,-158.5 613.5,-164.5 613.5,-170.5 613.5,-170.5 613.5,-447.5 613.5,-447.5 613.5,-453.5 607.5,-459.5 601.5,-459.5 601.5,-459.5 312.5,-459.5 312.5,-459.5 306.5,-459.5 300.5,-453.5 300.5,-447.5 300.5,-447.5 300.5,-170.5 300.5,-170.5 300.5,-164.5 306.5,-158.5 312.5,-158.5"/>
<text text-anchor="middle" x="457" y="-444.3" font-family="Times,serif" font-size="14.00">User</text>
<polyline fill="none" stroke="black" points="300.5,-436.5 613.5,-436.5 "/>
<text text-anchor="start" x="308.5" y="-421.3" font-family="Times,serif" font-size="14.00">id :integer</text>
<text text-anchor="start" x="308.5" y="-406.3" font-family="Times,serif" font-size="14.00">email :character varying</text>
<text text-anchor="start" x="308.5" y="-391.3" font-family="Times,serif" font-size="14.00">encrypted_password :character varying</text>
<text text-anchor="start" x="308.5" y="-376.3" font-family="Times,serif" font-size="14.00">reset_password_token :character varying</text>
<text text-anchor="start" x="308.5" y="-361.3" font-family="Times,serif" font-size="14.00">reset_password_sent_at :timestamp without time zone</text>
<text text-anchor="start" x="308.5" y="-346.3" font-family="Times,serif" font-size="14.00">remember_created_at :timestamp without time zone</text>
<text text-anchor="start" x="308.5" y="-331.3" font-family="Times,serif" font-size="14.00">sign_in_count :integer</text>
<text text-anchor="start" x="308.5" y="-316.3" font-family="Times,serif" font-size="14.00">current_sign_in_at :timestamp without time zone</text>
<text text-anchor="start" x="308.5" y="-301.3" font-family="Times,serif" font-size="14.00">last_sign_in_at :timestamp without time zone</text>
<text text-anchor="start" x="308.5" y="-286.3" font-family="Times,serif" font-size="14.00">current_sign_in_ip :inet</text>
<text text-anchor="start" x="308.5" y="-271.3" font-family="Times,serif" font-size="14.00">last_sign_in_ip :inet</text>
<text text-anchor="start" x="308.5" y="-256.3" font-family="Times,serif" font-size="14.00">name :character varying</text>
<text text-anchor="start" x="308.5" y="-241.3" font-family="Times,serif" font-size="14.00">sure_name :character varying</text>
<text text-anchor="start" x="308.5" y="-226.3" font-family="Times,serif" font-size="14.00">last_name :character varying</text>
<text text-anchor="start" x="308.5" y="-211.3" font-family="Times,serif" font-size="14.00">rut :character varying</text>
<text text-anchor="start" x="308.5" y="-196.3" font-family="Times,serif" font-size="14.00">department_id :integer</text>
<text text-anchor="start" x="308.5" y="-181.3" font-family="Times,serif" font-size="14.00">created_at :timestamp without time zone</text>
<text text-anchor="start" x="308.5" y="-166.3" font-family="Times,serif" font-size="14.00">updated_at :timestamp without time zone</text>
</g>
<!-- Summary&#45;&gt;User -->
<g id="edge3" class="edge"><title>Summary&#45;&gt;User</title>
<path fill="none" stroke="#92eaa8" d="M302.439,-488.497C308.347,-481.674 314.431,-474.648 320.613,-467.509"/>
<polygon fill="#92eaa8" stroke="#92eaa8" points="302.309,-488.648 292.361,-493.262 299.036,-492.428 295.763,-496.208 295.763,-496.208 295.763,-496.208 299.036,-492.428 299.164,-499.154 302.309,-488.648 302.309,-488.648"/>
<polygon fill="#92eaa8" stroke="#92eaa8" points="320.809,-467.282 330.757,-462.668 324.082,-463.502 327.355,-459.723 327.355,-459.723 327.355,-459.723 324.082,-463.502 323.953,-456.777 320.809,-467.282 320.809,-467.282"/>
</g>
<!-- SummaryUser -->
<g id="node9" class="node"><title>SummaryUser</title>
<path fill="none" stroke="black" d="M310,-0.5C310,-0.5 530,-0.5 530,-0.5 536,-0.5 542,-6.5 542,-12.5 542,-12.5 542,-109.5 542,-109.5 542,-115.5 536,-121.5 530,-121.5 530,-121.5 310,-121.5 310,-121.5 304,-121.5 298,-115.5 298,-109.5 298,-109.5 298,-12.5 298,-12.5 298,-6.5 304,-0.5 310,-0.5"/>
<text text-anchor="middle" x="420" y="-106.3" font-family="Times,serif" font-size="14.00">SummaryUser</text>
<polyline fill="none" stroke="black" points="298,-98.5 542,-98.5 "/>
<text text-anchor="start" x="306" y="-83.3" font-family="Times,serif" font-size="14.00">id :integer</text>
<text text-anchor="start" x="306" y="-68.3" font-family="Times,serif" font-size="14.00">summary_id :integer</text>
<text text-anchor="start" x="306" y="-53.3" font-family="Times,serif" font-size="14.00">user_id :integer</text>
<text text-anchor="start" x="306" y="-38.3" font-family="Times,serif" font-size="14.00">created_at :timestamp without time zone</text>
<text text-anchor="start" x="306" y="-23.3" font-family="Times,serif" font-size="14.00">updated_at :timestamp without time zone</text>
<text text-anchor="start" x="306" y="-8.3" font-family="Times,serif" font-size="14.00">type :integer</text>
</g>
<!-- Summary&#45;&gt;SummaryUser -->
<g id="edge2" class="edge"><title>Summary&#45;&gt;SummaryUser</title>
<path fill="none" stroke="#fc7d9e" d="M248.025,-488.472C249.803,-478.89 251.505,-469.242 253,-460 274.608,-326.456 222.833,-274.851 291,-158 297.216,-147.345 305.129,-137.508 313.969,-128.524"/>
<ellipse fill="none" stroke="#fc7d9e" cx="247.255" cy="-492.564" rx="4.00001" ry="4.00001"/>
<polygon fill="#fc7d9e" stroke="#fc7d9e" points="314.048,-128.448 324.368,-124.74 317.645,-124.975 321.242,-121.503 321.242,-121.503 321.242,-121.503 317.645,-124.975 318.117,-118.265 314.048,-128.448 314.048,-128.448"/>
</g>
<!-- Department -->
<g id="node3" class="node"><title>Department</title>
<path fill="none" stroke="black" d="M387,-519C387,-519 607,-519 607,-519 613,-519 619,-525 619,-531 619,-531 619,-613 619,-613 619,-619 613,-625 607,-625 607,-625 387,-625 387,-625 381,-625 375,-619 375,-613 375,-613 375,-531 375,-531 375,-525 381,-519 387,-519"/>
<text text-anchor="middle" x="497" y="-609.8" font-family="Times,serif" font-size="14.00">Department</text>
<polyline fill="none" stroke="black" points="375,-602 619,-602 "/>
<text text-anchor="start" x="383" y="-586.8" font-family="Times,serif" font-size="14.00">id :integer</text>
<text text-anchor="start" x="383" y="-571.8" font-family="Times,serif" font-size="14.00">name :character varying</text>
<text text-anchor="start" x="383" y="-556.8" font-family="Times,serif" font-size="14.00">establishment_id :integer</text>
<text text-anchor="start" x="383" y="-541.8" font-family="Times,serif" font-size="14.00">created_at :timestamp without time zone</text>
<text text-anchor="start" x="383" y="-526.8" font-family="Times,serif" font-size="14.00">updated_at :timestamp without time zone</text>
</g>
<!-- Department&#45;&gt;User -->
<g id="edge4" class="edge"><title>Department&#45;&gt;User</title>
<path fill="none" stroke="#0bb93f" d="M487.78,-510.837C485.838,-498.167 483.703,-484.235 481.49,-469.799"/>
<ellipse fill="none" stroke="#0bb93f" cx="488.396" cy="-514.856" rx="4.00001" ry="4.00001"/>
<polygon fill="#0bb93f" stroke="#0bb93f" points="481.463,-469.618 484.396,-459.052 480.705,-464.676 479.948,-459.734 479.948,-459.734 479.948,-459.734 480.705,-464.676 475.5,-460.415 481.463,-469.618 481.463,-469.618"/>
</g>
<!-- City -->
<g id="node4" class="node"><title>City</title>
<path fill="none" stroke="black" d="M387,-827.5C387,-827.5 607,-827.5 607,-827.5 613,-827.5 619,-833.5 619,-839.5 619,-839.5 619,-906.5 619,-906.5 619,-912.5 613,-918.5 607,-918.5 607,-918.5 387,-918.5 387,-918.5 381,-918.5 375,-912.5 375,-906.5 375,-906.5 375,-839.5 375,-839.5 375,-833.5 381,-827.5 387,-827.5"/>
<text text-anchor="middle" x="497" y="-903.3" font-family="Times,serif" font-size="14.00">City</text>
<polyline fill="none" stroke="black" points="375,-895.5 619,-895.5 "/>
<text text-anchor="start" x="383" y="-880.3" font-family="Times,serif" font-size="14.00">id :integer</text>
<text text-anchor="start" x="383" y="-865.3" font-family="Times,serif" font-size="14.00">name :character varying</text>
<text text-anchor="start" x="383" y="-850.3" font-family="Times,serif" font-size="14.00">created_at :timestamp without time zone</text>
<text text-anchor="start" x="383" y="-835.3" font-family="Times,serif" font-size="14.00">updated_at :timestamp without time zone</text>
</g>
<!-- Establishment -->
<g id="node10" class="node"><title>Establishment</title>
<path fill="none" stroke="black" d="M387,-684.5C387,-684.5 607,-684.5 607,-684.5 613,-684.5 619,-690.5 619,-696.5 619,-696.5 619,-778.5 619,-778.5 619,-784.5 613,-790.5 607,-790.5 607,-790.5 387,-790.5 387,-790.5 381,-790.5 375,-784.5 375,-778.5 375,-778.5 375,-696.5 375,-696.5 375,-690.5 381,-684.5 387,-684.5"/>
<text text-anchor="middle" x="497" y="-775.3" font-family="Times,serif" font-size="14.00">Establishment</text>
<polyline fill="none" stroke="black" points="375,-767.5 619,-767.5 "/>
<text text-anchor="start" x="383" y="-752.3" font-family="Times,serif" font-size="14.00">id :integer</text>
<text text-anchor="start" x="383" y="-737.3" font-family="Times,serif" font-size="14.00">name :character varying</text>
<text text-anchor="start" x="383" y="-722.3" font-family="Times,serif" font-size="14.00">city_id :integer</text>
<text text-anchor="start" x="383" y="-707.3" font-family="Times,serif" font-size="14.00">created_at :timestamp without time zone</text>
<text text-anchor="start" x="383" y="-692.3" font-family="Times,serif" font-size="14.00">updated_at :timestamp without time zone</text>
</g>
<!-- City&#45;&gt;Establishment -->
<g id="edge5" class="edge"><title>City&#45;&gt;Establishment</title>
<path fill="none" stroke="#b78813" d="M497,-819.111C497,-813.148 497,-807.03 497,-800.96"/>
<ellipse fill="none" stroke="#b78813" cx="497" cy="-823.175" rx="4" ry="4"/>
<polygon fill="#b78813" stroke="#b78813" points="497,-800.824 501.5,-790.824 497,-795.824 497,-790.824 497,-790.824 497,-790.824 497,-795.824 492.5,-790.824 497,-800.824 497,-800.824"/>
</g>
<!-- Document -->
<g id="node7" class="node"><title>Document</title>
<path fill="none" stroke="black" d="M12,-0.5C12,-0.5 232,-0.5 232,-0.5 238,-0.5 244,-6.5 244,-12.5 244,-12.5 244,-109.5 244,-109.5 244,-115.5 238,-121.5 232,-121.5 232,-121.5 12,-121.5 12,-121.5 6,-121.5 0,-115.5 0,-109.5 0,-109.5 0,-12.5 0,-12.5 0,-6.5 6,-0.5 12,-0.5"/>
<text text-anchor="middle" x="122" y="-106.3" font-family="Times,serif" font-size="14.00">Document</text>
<polyline fill="none" stroke="black" points="0,-98.5 244,-98.5 "/>
<text text-anchor="start" x="8" y="-83.3" font-family="Times,serif" font-size="14.00">id :integer</text>
<text text-anchor="start" x="8" y="-68.3" font-family="Times,serif" font-size="14.00">name :character varying</text>
<text text-anchor="start" x="8" y="-53.3" font-family="Times,serif" font-size="14.00">link :character varying</text>
<text text-anchor="start" x="8" y="-38.3" font-family="Times,serif" font-size="14.00">summary_phase_id :integer</text>
<text text-anchor="start" x="8" y="-23.3" font-family="Times,serif" font-size="14.00">created_at :timestamp without time zone</text>
<text text-anchor="start" x="8" y="-8.3" font-family="Times,serif" font-size="14.00">updated_at :timestamp without time zone</text>
</g>
<!-- SummaryPhase&#45;&gt;Document -->
<g id="edge6" class="edge"><title>SummaryPhase&#45;&gt;Document</title>
<path fill="none" stroke="#ed530e" d="M122,-255.326C122,-219.319 122,-171.203 122,-131.981"/>
<ellipse fill="none" stroke="#ed530e" cx="122" cy="-259.451" rx="4" ry="4"/>
<polygon fill="#ed530e" stroke="#ed530e" points="122,-131.955 126.5,-121.955 122,-126.955 122,-121.955 122,-121.955 122,-121.955 122,-126.955 117.5,-121.955 122,-131.955 122,-131.955"/>
</g>
<!-- ApplicationRecord -->
<g id="node6" class="node"><title>ApplicationRecord</title>
<ellipse fill="none" stroke="black" cx="714" cy="-873" rx="77.1866" ry="18"/>
<text text-anchor="middle" x="714" y="-869.3" font-family="Times,serif" font-size="14.00">ApplicationRecord</text>
</g>
<!-- User&#45;&gt;SummaryUser -->
<g id="edge7" class="edge"><title>User&#45;&gt;SummaryUser</title>
<path fill="none" stroke="#248ba7" d="M433.26,-150.164C432.33,-143.977 431.419,-137.919 430.537,-132.059"/>
<ellipse fill="none" stroke="#248ba7" cx="433.869" cy="-154.211" rx="4.00001" ry="4.00001"/>
<polygon fill="#248ba7" stroke="#248ba7" points="430.473,-131.628 433.435,-121.07 429.729,-126.684 428.985,-121.739 428.985,-121.739 428.985,-121.739 429.729,-126.684 424.535,-122.409 430.473,-131.628 430.473,-131.628"/>
</g>
<!-- Establishment&#45;&gt;Department -->
<g id="edge8" class="edge"><title>Establishment&#45;&gt;Department</title>
<path fill="none" stroke="#41df25" d="M497,-676.223C497,-662.893 497,-648.742 497,-635.332"/>
<ellipse fill="none" stroke="#41df25" cx="497" cy="-680.318" rx="4" ry="4"/>
<polygon fill="#41df25" stroke="#41df25" points="497,-635.247 501.5,-625.247 497,-630.247 497,-625.247 497,-625.247 497,-625.247 497,-630.247 492.5,-625.247 497,-635.247 497,-635.247"/>
</g>
</g>
</svg>
