<?xml version="1.0" encoding="UTF-8" standalone="no"?>
<!DOCTYPE svg PUBLIC "-//W3C//DTD SVG 1.1//EN"
 "http://www.w3.org/Graphics/SVG/1.1/DTD/svg11.dtd">
<!-- Generated by graphviz version 2.38.0 (20140413.2041)
 -->
<!-- Title: models_diagram Pages: 1 -->
<svg width="799pt" height="942pt"
 viewBox="0.00 0.00 799.34 942.00" xmlns="http://www.w3.org/2000/svg" xmlns:xlink="http://www.w3.org/1999/xlink">
<g id="graph0" class="graph" transform="scale(1 1) rotate(0) translate(4 938)">
<title>models_diagram</title>
<polygon fill="none" stroke="none" points="-4,4 -4,-938 795.343,-938 795.343,4 -4,4"/>
<!-- _diagram_info -->
<g id="node1" class="node"><title>_diagram_info</title>
<text text-anchor="start" x="151" y="-912.6" font-family="Times,serif" font-size="13.00">Models diagram</text>
<text text-anchor="start" x="151" y="-898.6" font-family="Times,serif" font-size="13.00">Date: Mar 19 2017 &#45; 22:39</text>
<text text-anchor="start" x="151" y="-884.6" font-family="Times,serif" font-size="13.00">Migration version: 20170319143119</text>
<text text-anchor="start" x="151" y="-870.6" font-family="Times,serif" font-size="13.00">Generated by RailRoady 1.5.2</text>
<text text-anchor="start" x="151" y="-856.6" font-family="Times,serif" font-size="13.00">http://railroady.prestonlee.com</text>
</g>
<!-- Summary -->
<g id="node2" class="node"><title>Summary</title>
<path fill="none" stroke="black" d="M117.5,-511.5C117.5,-511.5 344.5,-511.5 344.5,-511.5 350.5,-511.5 356.5,-517.5 356.5,-523.5 356.5,-523.5 356.5,-650.5 356.5,-650.5 356.5,-656.5 350.5,-662.5 344.5,-662.5 344.5,-662.5 117.5,-662.5 117.5,-662.5 111.5,-662.5 105.5,-656.5 105.5,-650.5 105.5,-650.5 105.5,-523.5 105.5,-523.5 105.5,-517.5 111.5,-511.5 117.5,-511.5"/>
<text text-anchor="middle" x="231" y="-647.3" font-family="Times,serif" font-size="14.00">Summary</text>
<polyline fill="none" stroke="black" points="105.5,-639.5 356.5,-639.5 "/>
<text text-anchor="start" x="113.5" y="-624.3" font-family="Times,serif" font-size="14.00">id :integer</text>
<text text-anchor="start" x="113.5" y="-609.3" font-family="Times,serif" font-size="14.00">description :character varying</text>
<text text-anchor="start" x="113.5" y="-594.3" font-family="Times,serif" font-size="14.00">note :text</text>
<text text-anchor="start" x="113.5" y="-579.3" font-family="Times,serif" font-size="14.00">resolution :integer</text>
<text text-anchor="start" x="113.5" y="-564.3" font-family="Times,serif" font-size="14.00">starting_day :timestamp without time zone</text>
<text text-anchor="start" x="113.5" y="-549.3" font-family="Times,serif" font-size="14.00">close_day :timestamp without time zone</text>
<text text-anchor="start" x="113.5" y="-534.3" font-family="Times,serif" font-size="14.00">created_at :timestamp without time zone</text>
<text text-anchor="start" x="113.5" y="-519.3" font-family="Times,serif" font-size="14.00">updated_at :timestamp without time zone</text>
</g>
<!-- SummaryPhase -->
<g id="node5" class="node"><title>SummaryPhase</title>
<path fill="none" stroke="black" d="M12,-263.5C12,-263.5 232,-263.5 232,-263.5 238,-263.5 244,-269.5 244,-275.5 244,-275.5 244,-357.5 244,-357.5 244,-363.5 238,-369.5 232,-369.5 232,-369.5 12,-369.5 12,-369.5 6,-369.5 0,-363.5 0,-357.5 0,-357.5 0,-275.5 0,-275.5 0,-269.5 6,-263.5 12,-263.5"/>
<text text-anchor="middle" x="122" y="-354.3" font-family="Times,serif" font-size="14.00">SummaryPhase</text>
<polyline fill="none" stroke="black" points="0,-346.5 244,-346.5 "/>
<text text-anchor="start" x="8" y="-331.3" font-family="Times,serif" font-size="14.00">id :integer</text>
<text text-anchor="start" x="8" y="-316.3" font-family="Times,serif" font-size="14.00">summary_id :integer</text>
<text text-anchor="start" x="8" y="-301.3" font-family="Times,serif" font-size="14.00">created_at :timestamp without time zone</text>
<text text-anchor="start" x="8" y="-286.3" font-family="Times,serif" font-size="14.00">updated_at :timestamp without time zone</text>
<text text-anchor="start" x="8" y="-271.3" font-family="Times,serif" font-size="14.00">phase :integer</text>
</g>
<!-- Summary&#45;&gt;SummaryPhase -->
<g id="edge1" class="edge"><title>Summary&#45;&gt;SummaryPhase</title>
<path fill="none" stroke="#7369b1" d="M197.601,-503.729C181.347,-463.691 162.132,-416.357 147.141,-379.43"/>
<ellipse fill="none" stroke="#7369b1" cx="199.133" cy="-507.502" rx="4.00002" ry="4.00002"/>
<polygon fill="#7369b1" stroke="#7369b1" points="146.99,-379.058 147.398,-368.099 145.109,-374.425 143.228,-369.792 143.228,-369.792 143.228,-369.792 145.109,-374.425 139.059,-371.485 146.99,-379.058 146.99,-379.058"/>
</g>
<!-- User -->
<g id="node8" class="node"><title>User</title>
<path fill="none" stroke="black" d="M312.5,-158.5C312.5,-158.5 601.5,-158.5 601.5,-158.5 607.5,-158.5 613.5,-164.5 613.5,-170.5 613.5,-170.5 613.5,-462.5 613.5,-462.5 613.5,-468.5 607.5,-474.5 601.5,-474.5 601.5,-474.5 312.5,-474.5 312.5,-474.5 306.5,-474.5 300.5,-468.5 300.5,-462.5 300.5,-462.5 300.5,-170.5 300.5,-170.5 300.5,-164.5 306.5,-158.5 312.5,-158.5"/>
<text text-anchor="middle" x="457" y="-459.3" font-family="Times,serif" font-size="14.00">User</text>
<polyline fill="none" stroke="black" points="300.5,-451.5 613.5,-451.5 "/>
<text text-anchor="start" x="308.5" y="-436.3" font-family="Times,serif" font-size="14.00">id :integer</text>
<text text-anchor="start" x="308.5" y="-421.3" font-family="Times,serif" font-size="14.00">email :character varying</text>
<text text-anchor="start" x="308.5" y="-406.3" font-family="Times,serif" font-size="14.00">encrypted_password :character varying</text>
<text text-anchor="start" x="308.5" y="-391.3" font-family="Times,serif" font-size="14.00">reset_password_token :character varying</text>
<text text-anchor="start" x="308.5" y="-376.3" font-family="Times,serif" font-size="14.00">reset_password_sent_at :timestamp without time zone</text>
<text text-anchor="start" x="308.5" y="-361.3" font-family="Times,serif" font-size="14.00">remember_created_at :timestamp without time zone</text>
<text text-anchor="start" x="308.5" y="-346.3" font-family="Times,serif" font-size="14.00">sign_in_count :integer</text>
<text text-anchor="start" x="308.5" y="-331.3" font-family="Times,serif" font-size="14.00">current_sign_in_at :timestamp without time zone</text>
<text text-anchor="start" x="308.5" y="-316.3" font-family="Times,serif" font-size="14.00">last_sign_in_at :timestamp without time zone</text>
<text text-anchor="start" x="308.5" y="-301.3" font-family="Times,serif" font-size="14.00">current_sign_in_ip :inet</text>
<text text-anchor="start" x="308.5" y="-286.3" font-family="Times,serif" font-size="14.00">last_sign_in_ip :inet</text>
<text text-anchor="start" x="308.5" y="-271.3" font-family="Times,serif" font-size="14.00">name :character varying</text>
<text text-anchor="start" x="308.5" y="-256.3" font-family="Times,serif" font-size="14.00">sure_name :character varying</text>
<text text-anchor="start" x="308.5" y="-241.3" font-family="Times,serif" font-size="14.00">last_name :character varying</text>
<text text-anchor="start" x="308.5" y="-226.3" font-family="Times,serif" font-size="14.00">rut :character varying</text>
<text text-anchor="start" x="308.5" y="-211.3" font-family="Times,serif" font-size="14.00">department_id :integer</text>
<text text-anchor="start" x="308.5" y="-196.3" font-family="Times,serif" font-size="14.00">created_at :timestamp without time zone</text>
<text text-anchor="start" x="308.5" y="-181.3" font-family="Times,serif" font-size="14.00">updated_at :timestamp without time zone</text>
<text text-anchor="start" x="308.5" y="-166.3" font-family="Times,serif" font-size="14.00">role :integer</text>
</g>
<!-- Summary&#45;&gt;User -->
<g id="edge3" class="edge"><title>Summary&#45;&gt;User</title>
<path fill="none" stroke="#935b4f" d="M300.468,-503.468C306.235,-496.617 312.181,-489.553 318.231,-482.365"/>
<polygon fill="#935b4f" stroke="#935b4f" points="300.393,-503.557 290.511,-508.31 297.173,-507.382 293.954,-511.208 293.954,-511.208 293.954,-511.208 297.173,-507.382 297.396,-514.106 300.393,-503.557 300.393,-503.557"/>
<polygon fill="#935b4f" stroke="#935b4f" points="318.393,-482.173 328.275,-477.42 321.613,-478.347 324.832,-474.522 324.832,-474.522 324.832,-474.522 321.613,-478.347 321.39,-471.624 318.393,-482.173 318.393,-482.173"/>
</g>
<!-- SummaryUser -->
<g id="node9" class="node"><title>SummaryUser</title>
<path fill="none" stroke="black" d="M310,-0.5C310,-0.5 530,-0.5 530,-0.5 536,-0.5 542,-6.5 542,-12.5 542,-12.5 542,-109.5 542,-109.5 542,-115.5 536,-121.5 530,-121.5 530,-121.5 310,-121.5 310,-121.5 304,-121.5 298,-115.5 298,-109.5 298,-109.5 298,-12.5 298,-12.5 298,-6.5 304,-0.5 310,-0.5"/>
<text text-anchor="middle" x="420" y="-106.3" font-family="Times,serif" font-size="14.00">SummaryUser</text>
<polyline fill="none" stroke="black" points="298,-98.5 542,-98.5 "/>
<text text-anchor="start" x="306" y="-83.3" font-family="Times,serif" font-size="14.00">id :integer</text>
<text text-anchor="start" x="306" y="-68.3" font-family="Times,serif" font-size="14.00">summary_id :integer</text>
<text text-anchor="start" x="306" y="-53.3" font-family="Times,serif" font-size="14.00">user_id :integer</text>
<text text-anchor="start" x="306" y="-38.3" font-family="Times,serif" font-size="14.00">created_at :timestamp without time zone</text>
<text text-anchor="start" x="306" y="-23.3" font-family="Times,serif" font-size="14.00">updated_at :timestamp without time zone</text>
<text text-anchor="start" x="306" y="-8.3" font-family="Times,serif" font-size="14.00">type :integer</text>
</g>
<!-- Summary&#45;&gt;SummaryUser -->
<g id="edge2" class="edge"><title>Summary&#45;&gt;SummaryUser</title>
<path fill="none" stroke="#af6775" d="M248.123,-503.245C249.875,-493.739 251.544,-484.171 253,-475 275.254,-334.858 219.859,-280.776 291,-158 297.129,-147.422 304.937,-137.654 313.669,-128.728"/>
<ellipse fill="none" stroke="#af6775" cx="247.369" cy="-507.274" rx="4.00001" ry="4.00001"/>
<polygon fill="#af6775" stroke="#af6775" points="313.68,-128.716 323.99,-124.979 317.268,-125.233 320.855,-121.75 320.855,-121.75 320.855,-121.75 317.268,-125.233 317.721,-118.522 313.68,-128.716 313.68,-128.716"/>
</g>
<!-- Department -->
<g id="node3" class="node"><title>Department</title>
<path fill="none" stroke="black" d="M387,-534C387,-534 607,-534 607,-534 613,-534 619,-540 619,-546 619,-546 619,-628 619,-628 619,-634 613,-640 607,-640 607,-640 387,-640 387,-640 381,-640 375,-634 375,-628 375,-628 375,-546 375,-546 375,-540 381,-534 387,-534"/>
<text text-anchor="middle" x="497" y="-624.8" font-family="Times,serif" font-size="14.00">Department</text>
<polyline fill="none" stroke="black" points="375,-617 619,-617 "/>
<text text-anchor="start" x="383" y="-601.8" font-family="Times,serif" font-size="14.00">id :integer</text>
<text text-anchor="start" x="383" y="-586.8" font-family="Times,serif" font-size="14.00">name :character varying</text>
<text text-anchor="start" x="383" y="-571.8" font-family="Times,serif" font-size="14.00">establishment_id :integer</text>
<text text-anchor="start" x="383" y="-556.8" font-family="Times,serif" font-size="14.00">created_at :timestamp without time zone</text>
<text text-anchor="start" x="383" y="-541.8" font-family="Times,serif" font-size="14.00">updated_at :timestamp without time zone</text>
</g>
<!-- Department&#45;&gt;User -->
<g id="edge4" class="edge"><title>Department&#45;&gt;User</title>
<path fill="none" stroke="#0202b3" d="M488.053,-525.944C486.166,-513.278 484.088,-499.327 481.928,-484.826"/>
<ellipse fill="none" stroke="#0202b3" cx="488.651" cy="-529.956" rx="4.00001" ry="4.00001"/>
<polygon fill="#0202b3" stroke="#0202b3" points="481.894,-484.6 484.871,-474.046 481.157,-479.654 480.42,-474.709 480.42,-474.709 480.42,-474.709 481.157,-479.654 475.969,-475.372 481.894,-484.6 481.894,-484.6"/>
</g>
<!-- City -->
<g id="node4" class="node"><title>City</title>
<path fill="none" stroke="black" d="M387,-842.5C387,-842.5 607,-842.5 607,-842.5 613,-842.5 619,-848.5 619,-854.5 619,-854.5 619,-921.5 619,-921.5 619,-927.5 613,-933.5 607,-933.5 607,-933.5 387,-933.5 387,-933.5 381,-933.5 375,-927.5 375,-921.5 375,-921.5 375,-854.5 375,-854.5 375,-848.5 381,-842.5 387,-842.5"/>
<text text-anchor="middle" x="497" y="-918.3" font-family="Times,serif" font-size="14.00">City</text>
<polyline fill="none" stroke="black" points="375,-910.5 619,-910.5 "/>
<text text-anchor="start" x="383" y="-895.3" font-family="Times,serif" font-size="14.00">id :integer</text>
<text text-anchor="start" x="383" y="-880.3" font-family="Times,serif" font-size="14.00">name :character varying</text>
<text text-anchor="start" x="383" y="-865.3" font-family="Times,serif" font-size="14.00">created_at :timestamp without time zone</text>
<text text-anchor="start" x="383" y="-850.3" font-family="Times,serif" font-size="14.00">updated_at :timestamp without time zone</text>
</g>
<!-- Establishment -->
<g id="node10" class="node"><title>Establishment</title>
<path fill="none" stroke="black" d="M387,-699.5C387,-699.5 607,-699.5 607,-699.5 613,-699.5 619,-705.5 619,-711.5 619,-711.5 619,-793.5 619,-793.5 619,-799.5 613,-805.5 607,-805.5 607,-805.5 387,-805.5 387,-805.5 381,-805.5 375,-799.5 375,-793.5 375,-793.5 375,-711.5 375,-711.5 375,-705.5 381,-699.5 387,-699.5"/>
<text text-anchor="middle" x="497" y="-790.3" font-family="Times,serif" font-size="14.00">Establishment</text>
<polyline fill="none" stroke="black" points="375,-782.5 619,-782.5 "/>
<text text-anchor="start" x="383" y="-767.3" font-family="Times,serif" font-size="14.00">id :integer</text>
<text text-anchor="start" x="383" y="-752.3" font-family="Times,serif" font-size="14.00">name :character varying</text>
<text text-anchor="start" x="383" y="-737.3" font-family="Times,serif" font-size="14.00">city_id :integer</text>
<text text-anchor="start" x="383" y="-722.3" font-family="Times,serif" font-size="14.00">created_at :timestamp without time zone</text>
<text text-anchor="start" x="383" y="-707.3" font-family="Times,serif" font-size="14.00">updated_at :timestamp without time zone</text>
</g>
<!-- City&#45;&gt;Establishment -->
<g id="edge5" class="edge"><title>City&#45;&gt;Establishment</title>
<path fill="none" stroke="#a809b3" d="M497,-834.111C497,-828.148 497,-822.03 497,-815.96"/>
<ellipse fill="none" stroke="#a809b3" cx="497" cy="-838.175" rx="4" ry="4"/>
<polygon fill="#a809b3" stroke="#a809b3" points="497,-815.824 501.5,-805.824 497,-810.824 497,-805.824 497,-805.824 497,-805.824 497,-810.824 492.5,-805.824 497,-815.824 497,-815.824"/>
</g>
<!-- Document -->
<g id="node7" class="node"><title>Document</title>
<path fill="none" stroke="black" d="M12,-0.5C12,-0.5 232,-0.5 232,-0.5 238,-0.5 244,-6.5 244,-12.5 244,-12.5 244,-109.5 244,-109.5 244,-115.5 238,-121.5 232,-121.5 232,-121.5 12,-121.5 12,-121.5 6,-121.5 0,-115.5 0,-109.5 0,-109.5 0,-12.5 0,-12.5 0,-6.5 6,-0.5 12,-0.5"/>
<text text-anchor="middle" x="122" y="-106.3" font-family="Times,serif" font-size="14.00">Document</text>
<polyline fill="none" stroke="black" points="0,-98.5 244,-98.5 "/>
<text text-anchor="start" x="8" y="-83.3" font-family="Times,serif" font-size="14.00">id :integer</text>
<text text-anchor="start" x="8" y="-68.3" font-family="Times,serif" font-size="14.00">name :character varying</text>
<text text-anchor="start" x="8" y="-53.3" font-family="Times,serif" font-size="14.00">link :character varying</text>
<text text-anchor="start" x="8" y="-38.3" font-family="Times,serif" font-size="14.00">summary_phase_id :integer</text>
<text text-anchor="start" x="8" y="-23.3" font-family="Times,serif" font-size="14.00">created_at :timestamp without time zone</text>
<text text-anchor="start" x="8" y="-8.3" font-family="Times,serif" font-size="14.00">updated_at :timestamp without time zone</text>
</g>
<!-- SummaryPhase&#45;&gt;Document -->
<g id="edge6" class="edge"><title>SummaryPhase&#45;&gt;Document</title>
<path fill="none" stroke="#80be72" d="M122,-255.128C122,-218.087 122,-170.508 122,-131.845"/>
<ellipse fill="none" stroke="#80be72" cx="122" cy="-259.282" rx="4" ry="4"/>
<polygon fill="#80be72" stroke="#80be72" points="122,-131.707 126.5,-121.707 122,-126.707 122,-121.707 122,-121.707 122,-121.707 122,-126.707 117.5,-121.707 122,-131.707 122,-131.707"/>
</g>
<!-- ApplicationRecord -->
<g id="node6" class="node"><title>ApplicationRecord</title>
<ellipse fill="none" stroke="black" cx="714" cy="-888" rx="77.1866" ry="18"/>
<text text-anchor="middle" x="714" y="-884.3" font-family="Times,serif" font-size="14.00">ApplicationRecord</text>
</g>
<!-- User&#45;&gt;SummaryUser -->
<g id="edge7" class="edge"><title>User&#45;&gt;SummaryUser</title>
<path fill="none" stroke="#94f7c4" d="M432.866,-150.147C431.935,-143.772 431.026,-137.54 430.148,-131.526"/>
<ellipse fill="none" stroke="#94f7c4" cx="433.463" cy="-154.241" rx="4.00001" ry="4.00001"/>
<polygon fill="#94f7c4" stroke="#94f7c4" points="430.147,-131.518 433.155,-120.973 429.425,-126.57 428.702,-121.623 428.702,-121.623 428.702,-121.623 429.425,-126.57 424.25,-122.273 430.147,-131.518 430.147,-131.518"/>
</g>
<!-- Establishment&#45;&gt;Department -->
<g id="edge8" class="edge"><title>Establishment&#45;&gt;Department</title>
<path fill="none" stroke="#1d6c73" d="M497,-691.223C497,-677.893 497,-663.742 497,-650.332"/>
<ellipse fill="none" stroke="#1d6c73" cx="497" cy="-695.318" rx="4" ry="4"/>
<polygon fill="#1d6c73" stroke="#1d6c73" points="497,-650.247 501.5,-640.247 497,-645.247 497,-640.247 497,-640.247 497,-640.247 497,-645.247 492.5,-640.247 497,-650.247 497,-650.247"/>
</g>
</g>
</svg>
